<?xml version="1.0" encoding="UTF-8"?>
<svg version="1.1" xmlns="http://www.w3.org/2000/svg" width="700" height="700">
<path d="M0 0 C231 0 462 0 700 0 C700 231 700 462 700 700 C469 700 238 700 0 700 C0 469 0 238 0 0 Z " fill="#110F24" transform="translate(0,0)"/>
<path d="M0 0 C1.23884445 0.00539291 1.23884445 0.00539291 2.50271606 0.01089478 C15.65801738 0.092656 27.64438191 1.40491668 40.1875 5.5625 C41.52726365 5.95526668 42.86838193 6.34344783 44.2109375 6.7265625 C70.21616599 14.60855959 92.83347496 30.8496314 110.1875 51.5625 C110.71214844 52.17738281 111.23679687 52.79226562 111.77734375 53.42578125 C132.39954781 79.18925502 140.35809616 110.56152666 140.375 143 C140.38724609 144.23298828 140.39949219 145.46597656 140.41210938 146.73632812 C140.46348138 179.15206226 126.06021536 209.79719597 104.25390625 233.30078125 C102.56455975 235.14980133 101.03371962 237.02539461 99.5 239 C91.06737775 248.84190981 79.03400383 255.94153465 67.99926758 262.48583984 C66.27285653 263.51177607 64.56550426 264.56958421 62.859375 265.62890625 C58.44249526 268.12831357 53.70624399 269.57059765 48.875 271.0625 C47.9065918 271.36293213 46.93818359 271.66336426 45.94042969 271.97290039 C30.58233883 276.64912907 17.29794915 279.07394283 1.1875 278.5625 C1.1875 267.0125 1.1875 255.4625 1.1875 243.5625 C6.4675 243.2325 11.7475 242.9025 17.1875 242.5625 C44.76742844 237.79040042 69.60197831 223.08610666 85.9375 200.25 C87.38143712 198.03840011 88.79816728 195.80880431 90.1875 193.5625 C90.88746094 192.45777344 91.58742188 191.35304688 92.30859375 190.21484375 C105.57502296 168.1961702 108.51796649 138.46213267 102.43554688 113.5925293 C101.24887375 109.47983939 99.82807729 105.51479984 98.1875 101.5625 C97.73793945 100.47630371 97.73793945 100.47630371 97.27929688 99.36816406 C85.45395214 71.83846023 64.24120406 52.82643682 36.765625 41.5703125 C34.58938913 40.79989323 32.41314738 40.17618055 30.1875 39.5625 C29.29313232 39.31145508 28.39876465 39.06041016 27.47729492 38.80175781 C18.6549048 36.53473234 10.12015688 36.00217802 1.0625 36.0625 C0.33861084 36.06459473 -0.38527832 36.06668945 -1.13110352 36.06884766 C-12.92767458 36.13907308 -23.77773451 37.15632845 -34.8125 41.5625 C-35.55371094 41.85721191 -36.29492188 42.15192383 -37.05859375 42.45556641 C-50.9126337 48.1481559 -61.93662055 56.30223636 -72.8125 66.5625 C-73.45058594 67.14773437 -74.08867187 67.73296875 -74.74609375 68.3359375 C-86.45136238 79.4416044 -94.52516051 95.14056523 -98.8125 110.5625 C-99.09867188 111.54863281 -99.38484375 112.53476562 -99.6796875 113.55078125 C-102.85990532 125.22672381 -102.96426293 137.00990428 -103.01782227 149.05175781 C-103.02742767 150.46237965 -103.03743919 151.87299877 -103.04782104 153.28361511 C-103.07458829 157.07408835 -103.09574827 160.86457368 -103.11582303 164.65508747 C-103.13785887 168.63089957 -103.16516052 172.60667561 -103.19187927 176.5824585 C-103.24157041 184.09376569 -103.28659557 191.60509315 -103.32990164 199.11643958 C-103.37947702 207.67522456 -103.43431911 216.23397333 -103.48958123 224.79272318 C-103.60303876 242.38261523 -103.70995507 259.97254102 -103.8125 277.5625 C-107.56029221 275.8103875 -109.98295979 273.52033171 -112.8125 270.5625 C-114.30977025 269.05977521 -115.81001038 267.56000624 -117.3125 266.0625 C-118.09238281 265.28132813 -118.87226563 264.50015625 -119.67578125 263.6953125 C-121.2742853 262.09973076 -122.8842795 260.5156456 -124.5 258.9375 C-126.85605529 256.51776754 -129.03129735 254.0034941 -131.1875 251.40625 C-132.83845033 249.40737277 -132.83845033 249.40737277 -135.37759399 247.6363678 C-138.9727546 243.09777437 -138.48421157 239.17144603 -138.39599609 233.53686523 C-138.39950073 231.86756203 -138.39950073 231.86756203 -138.40307617 230.16453552 C-138.40469175 226.482912 -138.37062843 222.80253995 -138.3359375 219.12109375 C-138.32914544 216.5562434 -138.32442484 213.99138681 -138.32168579 211.42652893 C-138.31100064 206.0454695 -138.28498288 200.66484727 -138.24462891 195.28393555 C-138.18804348 187.73252698 -138.16549606 180.18129932 -138.14934421 172.62971199 C-138.1353055 166.73098162 -138.11081033 160.83228686 -138.0859375 154.93359375 C-138.08102673 153.68869108 -138.07611595 152.44378841 -138.07105637 151.16116142 C-138.05462653 147.60534785 -138.03121436 144.04965276 -138.00537109 140.49389648 C-138.00111115 139.46020935 -137.9968512 138.42652222 -137.99246216 137.36151123 C-137.90488205 127.32789667 -137.32467188 117.42105199 -135.0625 107.625 C-134.79808105 106.47088623 -134.79808105 106.47088623 -134.52832031 105.29345703 C-129.31130599 83.43753577 -116.33682604 56.34205208 -98.8125 41.5625 C-98.1525 41.5625 -97.4925 41.5625 -96.8125 41.5625 C-96.58175781 40.98886719 -96.35101563 40.41523438 -96.11328125 39.82421875 C-87.49662678 24.84210783 -62.14974612 13.74927779 -46.5 7.8125 C-45.45465088 7.40813721 -45.45465088 7.40813721 -44.38818359 6.99560547 C-29.85052475 1.73247357 -15.38285493 -0.16753277 0 0 Z " fill="#E4D8FB" transform="translate(348.8125,175.4375)"/>
<path d="M0 0 C1.36898437 0.41572266 1.36898437 0.41572266 2.765625 0.83984375 C19.30144598 6.62738109 31.99213429 19.82145455 40 35 C47.13586089 50.70759623 48.5091836 66.23638409 45 83 C44.82855469 83.90492188 44.65710938 84.80984375 44.48046875 85.7421875 C40.89865435 101.68703871 28.59782151 116.19192325 15.0625 125 C3.20749391 132.31156522 -9.09304064 136 -23 136 C-23 124.45 -23 112.9 -23 101 C-18.71 100.01 -14.42 99.02 -10 98 C-1.04536148 94.01230866 5.24194284 87.87099672 8.8125 78.75 C12.45871044 67.23565125 11.51972095 57.7988484 5.97265625 47 C1.26882724 39.50065696 -6.98182942 34.55141765 -15.4375 32.4375 C-26.05076934 30.62547841 -35.37524984 32.58774181 -44.3125 38.6875 C-51.48332812 44.53583932 -56.12280076 53.04084931 -57.28164232 62.23437417 C-57.39004305 64.56301889 -57.41273982 66.87544117 -57.39872742 69.20655823 C-57.40537424 70.08812826 -57.41202107 70.96969828 -57.41886932 71.87798256 C-57.43739876 74.80752844 -57.43490083 77.73666228 -57.43237305 80.66625977 C-57.44139634 82.77594068 -57.45172495 84.88561635 -57.46325684 86.99528503 C-57.49078615 92.70532771 -57.50010588 98.41527079 -57.50611091 104.12537122 C-57.51550511 110.09915933 -57.54170939 116.07287336 -57.56611633 122.0466156 C-57.60975613 133.35107792 -57.63831863 144.65552583 -57.66143972 155.96004671 C-57.68850484 168.83308828 -57.73241559 181.70605524 -57.77772844 194.57904351 C-57.87053868 221.05265519 -57.94223605 247.52629028 -58 274 C-58.66 274 -59.32 274 -60 274 C-61.18525848 272.57768983 -62.36584072 271.15115886 -63.51953125 269.703125 C-65.02629101 267.96975493 -66.5989677 266.57775451 -68.375 265.125 C-70.91895013 263.01684432 -73.06732523 260.84536086 -75.1875 258.3125 C-79.21522503 253.55831315 -83.80200902 249.47849914 -88.42578125 245.3203125 C-92.98247888 241.21306153 -92.98247888 241.21306153 -93.25168228 237.93947601 C-93.26274952 236.5988156 -93.2625673 235.2580369 -93.25396729 233.9173584 C-93.25708727 233.17949868 -93.26020725 232.44163896 -93.26342177 231.68141985 C-93.27143275 229.19573636 -93.26506596 226.71029491 -93.25878906 224.22460938 C-93.26149774 222.44745744 -93.26505797 220.67030663 -93.26940918 218.89315796 C-93.27855543 214.0538885 -93.27497835 209.21470398 -93.26865101 204.37543297 C-93.26359625 199.31119936 -93.26828159 194.24697315 -93.27142334 189.18273926 C-93.27506718 180.66836236 -93.27025574 172.15402008 -93.26074219 163.63964844 C-93.24988476 153.80932495 -93.25336176 143.97908461 -93.264395 134.14876318 C-93.27348938 125.70701561 -93.2747418 117.265293 -93.26951766 108.82354212 C-93.26640618 103.78295691 -93.26596543 98.74241067 -93.27259064 93.701828 C-93.27839374 88.95436369 -93.27431315 84.20700567 -93.26280212 79.45955276 C-93.26017014 77.72219138 -93.26089548 75.98482096 -93.26532745 74.24746323 C-93.28524095 65.64378325 -93.22654238 57.37733354 -91 49 C-90.71336172 47.77204334 -90.71336172 47.77204334 -90.42093277 46.51927948 C-86.84543281 31.65699399 -75.91778803 17.08877221 -63.41015625 8.43359375 C-42.57146953 -3.96154081 -23.26667271 -7.28988544 0 0 Z " fill="#E4D8FB" transform="translate(373,249)"/>
<path d="M0 0 C0.66 0.66 1.32 1.32 2 2 C1.26394531 2.53109375 0.52789062 3.0621875 -0.23046875 3.609375 C-1.69419922 4.66898438 -1.69419922 4.66898438 -3.1875 5.75 C-4.63189453 6.79414063 -4.63189453 6.79414063 -6.10546875 7.859375 C-8.79129214 9.84565195 -11.40666793 11.89499188 -14 14 C-13.625 11.0625 -13.625 11.0625 -13 8 C-12.34 7.67 -11.68 7.34 -11 7 C-10.34 6.01 -9.68 5.02 -9 4 C-8.34 4.33 -7.68 4.66 -7 5 C-7 4.34 -7 3.68 -7 3 C-4.69 2.01 -2.38 1.02 0 0 Z " fill="#D4CCEA" transform="translate(291,226)"/>
<path d="M0 0 C0.99 0.33 1.98 0.66 3 1 C3 1.99 3 2.98 3 4 C2.01 4.66 1.02 5.32 0 6 C0 6.66 0 7.32 0 8 C-2.97 7.505 -2.97 7.505 -6 7 C-6 7.66 -6 8.32 -6 9 C-7.65 9.33 -9.3 9.66 -11 10 C-9.75330996 6.25992989 -8.31486492 5.48752843 -5.125 3.25 C-4.24070312 2.61578125 -3.35640625 1.9815625 -2.4453125 1.328125 C-1.23488281 0.67070312 -1.23488281 0.67070312 0 0 Z " fill="#D0C9E5" transform="translate(414,397)"/>
<path d="M0 0 C0.66 0.66 1.32 1.32 2 2 C1.34 2 0.68 2 0 2 C0 1.34 0 0.68 0 0 Z M4 0 C4.66 0 5.32 0 6 0 C6.33 1.32 6.66 2.64 7 4 C2.545 7.96 2.545 7.96 -2 12 C-2.33 10.68 -2.66 9.36 -3 8 C-2.34 8 -1.68 8 -1 8 C-1 6.02 -1 4.04 -1 2 C-0.67 2.99 -0.34 3.98 0 5 C0.66 5 1.32 5 2 5 C2.144375 4.360625 2.28875 3.72125 2.4375 3.0625 C3 1 3 1 4 0 Z " fill="#211C33" transform="translate(258,201)"/>
<path d="M0 0 C2.32240046 2.85021875 3.93906527 5.46355091 5 9 C4.625 11.3125 4.625 11.3125 4 13 C2.68 13 1.36 13 0 13 C-0.79953138 9.71303767 -1.09658936 8.28976808 0 5 C-0.33 4.01 -0.66 3.02 -1 2 C-0.67 1.34 -0.34 0.68 0 0 Z " fill="#D4CBEA" transform="translate(411,282)"/>
<path d="M0 0 C0.33 1.32 0.66 2.64 1 4 C1.66 4 2.32 4 3 4 C2.01 7.63 1.02 11.26 0 15 C-0.33 15 -0.66 15 -1 15 C-1.99 10.71 -2.98 6.42 -4 2 C-2.68 2.33 -1.36 2.66 0 3 C0 2.01 0 1.02 0 0 Z " fill="#D2C9E5" transform="translate(453,280)"/>
<path d="M0 0 C0.98484375 0.00902344 1.9696875 0.01804687 2.984375 0.02734375 C4.10585938 0.04474609 4.10585938 0.04474609 5.25 0.0625 C1.75007882 2.96134776 -0.18169027 3.37397566 -4.75 3.0625 C-5.08 4.0525 -5.41 5.0425 -5.75 6.0625 C-6.08 5.0725 -6.41 4.0825 -6.75 3.0625 C-8.73 3.0625 -10.71 3.0625 -12.75 3.0625 C-8.38228707 0.15069138 -5.19846409 -0.06188648 0 0 Z " fill="#2D2844" transform="translate(349.75,279.9375)"/>
<path d="M0 0 C0.33 0.66 0.66 1.32 1 2 C0.67 2.66 0.34 3.32 0 4 C0.66 4 1.32 4 2 4 C2.33 6.31 2.66 8.62 3 11 C2.01 11.495 2.01 11.495 1 12 C-0.65 8.7 -2.3 5.4 -4 2 C-2.68 1.34 -1.36 0.68 0 0 Z " fill="#DAD2EF" transform="translate(442,256)"/>
<path d="M0 0 C1.34110539 2.20887947 2.06609767 3.45469419 1.75 6.0625 C1 8 1 8 -1 11 C-1.66 11 -2.32 11 -3 11 C-3.99 11.66 -4.98 12.32 -6 13 C-4.58707905 8.1725201 -2.57025846 4.2837641 0 0 Z " fill="#D1C6E6" transform="translate(229,245)"/>
<path d="M0 0 C0.33 0 0.66 0 1 0 C1 1.65 1 3.3 1 5 C0.34 4.67 -0.32 4.34 -1 4 C-0.67 2.68 -0.34 1.36 0 0 Z M-5 1 C-4.01 1.33 -3.02 1.66 -2 2 C-1.3125 4.0625 -1.3125 4.0625 -1 6 C-4.13498292 7.85776765 -6.37471432 8.20140476 -10 8 C-8.35 5.69 -6.7 3.38 -5 1 Z " fill="#1E1A31" transform="translate(413,352)"/>
<path d="M0 0 C0 3.99904969 -1.72586967 5.80200422 -4 9 C-4.99 8.67 -5.98 8.34 -7 8 C-7 8.99 -7 9.98 -7 11 C-8.98 11.33 -10.96 11.66 -13 12 C-8.87675353 7.74790208 -4.48717034 3.86364295 0 0 Z " fill="#2A243E" transform="translate(401,362)"/>
<path d="M0 0 C0.66 0.99 1.32 1.98 2 3 C2.99 3 3.98 3 5 3 C4.06409496 4.1055189 3.12620142 5.20935453 2.1875 6.3125 C1.66542969 6.92738281 1.14335937 7.54226563 0.60546875 8.17578125 C-0.87172469 9.85424679 -2.40039131 11.43882034 -4 13 C-4.33 12.01 -4.66 11.02 -5 10 C-4.01 9.67 -3.02 9.34 -2 9 C-1.855625 8.071875 -1.71125 7.14375 -1.5625 6.1875 C-1 3 -1 3 0 0 Z " fill="#1F1B34" transform="translate(298,260)"/>
<path d="M0 0 C0.33 0.66 0.66 1.32 1 2 C-4.445 4.475 -4.445 4.475 -10 7 C-10 5.35 -10 3.7 -10 2 C-6.3558226 -0.4294516 -4.28758728 -0.16179575 0 0 Z " fill="#D7CEEB" transform="translate(339,280)"/>
<path d="M0 0 C1.14926266 0.95421808 2.29430541 1.91352045 3.4375 2.875 C4.07558594 3.40867187 4.71367187 3.94234375 5.37109375 4.4921875 C7 6 7 6 8 8 C7.34 8 6.68 8 6 8 C5.67 8.99 5.34 9.98 5 11 C4.01 10.67 3.02 10.34 2 10 C1.375 8.3125 1.375 8.3125 1 6 C0.814375 4.9275 0.62875 3.855 0.4375 2.75 C0.293125 1.8425 0.14875 0.935 0 0 Z " fill="#28263E" transform="translate(303,512)"/>
<path d="M0 0 C0.94875 0.04125 1.8975 0.0825 2.875 0.125 C3.205 0.785 3.535 1.445 3.875 2.125 C2.41962432 2.96348804 0.96059627 3.79563934 -0.5 4.625 C-1.71816406 5.32109375 -1.71816406 5.32109375 -2.9609375 6.03125 C-5.125 7.125 -5.125 7.125 -7.125 7.125 C-4.56730769 0.18269231 -4.56730769 0.18269231 0 0 Z " fill="#1C1931" transform="translate(319.125,248.875)"/>
<path d="M0 0 C0.66 0.66 1.32 1.32 2 2 C-0.31 4.31 -2.62 6.62 -5 9 C-6 6 -6 6 -6 2 C-3 0 -3 0 0 0 Z " fill="#D3CBE7" transform="translate(275,239)"/>
<path d="M0 0 C4.10958767 1.45044271 7.43258745 3.51110752 11 6 C8 8 8 8 5 9 C3.19933758 6.0534615 1.49836105 3.11198065 0 0 Z " fill="#D1C8E8" transform="translate(422,196)"/>
<path d="M0 0 C2 3 2 3 1.75 5.5625 C1 8 1 8 -1 10 C-1.39764263 11.98821313 -1.73775349 13.98944339 -2 16 C-2.33 16 -2.66 16 -3 16 C-3.33266291 9.79029227 -2.45029331 5.71735105 0 0 Z " fill="#C6BEDA" transform="translate(284,292)"/>
<path d="M0 0 C0.33 1.32 0.66 2.64 1 4 C0.34 4 -0.32 4 -1 4 C-1 3.34 -1 2.68 -1 2 C-1.66 2 -2.32 2 -3 2 C-3.2475 2.804375 -3.495 3.60875 -3.75 4.4375 C-5 7 -5 7 -6.875 7.6875 C-7.57625 7.790625 -8.2775 7.89375 -9 8 C-10.3479743 8.63654342 -11.68596724 9.29605388 -13 10 C-10.15074359 6.01104102 -5.37644015 0 0 0 Z " fill="#CDC5E3" transform="translate(314,256)"/>
<path d="M0 0 C0 0.66 0 1.32 0 2 C-5.445 4.475 -5.445 4.475 -11 7 C-11 4 -11 4 -10 1 C-9.05125 1.020625 -8.1025 1.04125 -7.125 1.0625 C-4.31337204 1.00626744 -2.6726858 0 0 0 Z " fill="#1B1830" transform="translate(293,186)"/>
<path d="M0 0 C2.31 0.66 4.62 1.32 7 2 C4.14415227 3.90389849 2.0688238 4.69462177 -1.1875 5.625 C-2.08855469 5.88539063 -2.98960937 6.14578125 -3.91796875 6.4140625 C-4.94857422 6.70410156 -4.94857422 6.70410156 -6 7 C-5.67 6.01 -5.34 5.02 -5 4 C-4.34 4 -3.68 4 -3 4 C-3 3.34 -3 2.68 -3 2 C-2.01 2 -1.02 2 0 2 C0 1.34 0 0.68 0 0 Z " fill="#1B162E" transform="translate(302,179)"/>
<path d="M0 0 C0.33 0.66 0.66 1.32 1 2 C1.99 2.33 2.98 2.66 4 3 C3.04287109 3.72316406 3.04287109 3.72316406 2.06640625 4.4609375 C1.24011719 5.09257812 0.41382813 5.72421875 -0.4375 6.375 C-1.26121094 7.00148437 -2.08492187 7.62796875 -2.93359375 8.2734375 C-5.08528092 9.83753904 -5.08528092 9.83753904 -6 12 C-6.66 11.67 -7.32 11.34 -8 11 C-5.36 7.37 -2.72 3.74 0 0 Z " fill="#CEC5E2" transform="translate(242,226)"/>
<path d="M0 0 C1.11375 0.598125 2.2275 1.19625 3.375 1.8125 C4.00148438 2.14894531 4.62796875 2.48539062 5.2734375 2.83203125 C7 4 7 4 9 7 C3.25 6.125 3.25 6.125 1 5 C1 4.34 1 3.68 1 3 C0.01 2.67 -0.98 2.34 -2 2 C-1.34 1.34 -0.68 0.68 0 0 Z " fill="#D5CDEA" transform="translate(388,257)"/>
<path d="M0 0 C-1.65 2.64 -3.3 5.28 -5 8 C-7.35953094 5.64046906 -7.49141413 4.22104383 -8 1 C-2.25 -1.125 -2.25 -1.125 0 0 Z " fill="#201C33" transform="translate(440,369)"/>
<path d="M0 0 C-0.99 0.61875 -1.98 1.2375 -3 1.875 C-3.99 2.57625 -4.98 3.2775 -6 4 C-6 4.66 -6 5.32 -6 6 C-8.97 5.505 -8.97 5.505 -12 5 C-12 4.34 -12 3.68 -12 3 C-10.3789897 2.30314502 -8.75303934 1.61777139 -7.125 0.9375 C-6.22007812 0.55464844 -5.31515625 0.17179688 -4.3828125 -0.22265625 C-2 -1 -2 -1 0 0 Z " fill="#CCC3E0" transform="translate(308,183)"/>
<path d="M0 0 C4.62 0 9.24 0 14 0 C14.33 0.99 14.66 1.98 15 3 C12.03 3 9.06 3 6 3 C6 2.67 6 2.34 6 2 C3.03 1.505 3.03 1.505 0 1 C0 0.67 0 0.34 0 0 Z " fill="#29223E" transform="translate(333,211)"/>
<path d="M0 0 C3.39192363 0.59283621 5.2107757 1.76743189 7.75 4.0625 C8.67039063 4.88427734 8.67039063 4.88427734 9.609375 5.72265625 C10.29773438 6.35494141 10.29773438 6.35494141 11 7 C10.01 7.495 10.01 7.495 9 8 C2.57706093 4.90322581 2.57706093 4.90322581 0.5625 1.75 C0.376875 1.1725 0.19125 0.595 0 0 Z " fill="#201932" transform="translate(228,440)"/>
<path d="M0 0 C0.66 0 1.32 0 2 0 C2.66 1.32 3.32 2.64 4 4 C1.03 5.65 -1.94 7.3 -5 9 C-5.66 8.34 -6.32 7.68 -7 7 C-5.5459375 6.38125 -5.5459375 6.38125 -4.0625 5.75 C-0.87739901 4.35100832 -0.87739901 4.35100832 -0.125 1.8125 C-0.08375 1.214375 -0.0425 0.61625 0 0 Z " fill="#D5CDE9" transform="translate(426,426)"/>
<path d="M0 0 C0.33 0 0.66 0 1 0 C1.33 2.64 1.66 5.28 2 8 C0.35 8.66 -1.3 9.32 -3 10 C-2.01 6.7 -1.02 3.4 0 0 Z M3 2 C3 5 3 5 3 5 Z " fill="#302B44" transform="translate(482,358)"/>
<path d="M0 0 C2.04119788 1.61594832 4.04072937 3.2856382 6 5 C6 5.66 6 6.32 6 7 C4.35 7 2.7 7 1 7 C1 6.01 1 5.02 1 4 C0.34 3.34 -0.32 2.68 -1 2 C-0.67 1.34 -0.34 0.68 0 0 Z " fill="#322D46" transform="translate(291,500)"/>
<path d="M0 0 C1.14926266 0.95421808 2.29430541 1.91352045 3.4375 2.875 C4.07558594 3.40867187 4.71367187 3.94234375 5.37109375 4.4921875 C7 6 7 6 8 8 C5.69 7.34 3.38 6.68 1 6 C0.67 4.02 0.34 2.04 0 0 Z " fill="#312C45" transform="translate(211,420)"/>
<path d="M0 0 C0.66 0 1.32 0 2 0 C2.6875 1.6875 2.6875 1.6875 3 4 C1.5625 6.75 1.5625 6.75 0 9 C-0.99 7.68 -1.98 6.36 -3 5 C-2.34 5 -1.68 5 -1 5 C-0.67 3.35 -0.34 1.7 0 0 Z " fill="#DFD2F3" transform="translate(381,289)"/>
<path d="M0 0 C1.10844919 3.32534757 0.84454356 5.62182575 0 9 C-2.52588702 6.63707344 -3.88820837 5.33537489 -5 2 C-4.360625 1.855625 -3.72125 1.71125 -3.0625 1.5625 C-1.02454854 1.18992819 -1.02454854 1.18992819 0 0 Z " fill="#D2C9E7" transform="translate(438,249)"/>
<path d="M0 0 C0.99 0.33 1.98 0.66 3 1 C3 1.99 3 2.98 3 4 C2.01 4.66 1.02 5.32 0 6 C0 6.66 0 7.32 0 8 C-0.66 8 -1.32 8 -2 8 C-2.125 5.125 -2.125 5.125 -2 2 C-1.34 1.34 -0.68 0.68 0 0 Z " fill="#D9D0EF" transform="translate(414,397)"/>
<path d="M0 0 C-0.66 1.32 -1.32 2.64 -2 4 C-2.66 4 -3.32 4 -4 4 C-4.66 5.32 -5.32 6.64 -6 8 C-6.66 7.34 -7.32 6.68 -8 6 C-3.375 0 -3.375 0 0 0 Z " fill="#261F38" transform="translate(467,395)"/>
<path d="M0 0 C2.31 0 4.62 0 7 0 C2.25 4.875 2.25 4.875 0 6 C-0.33 5.01 -0.66 4.02 -1 3 C-0.34 3 0.32 3 1 3 C0.67 2.01 0.34 1.02 0 0 Z " fill="#23203A" transform="translate(411,394)"/>
<path d="M0 0 C1.2065625 0.0309375 1.2065625 0.0309375 2.4375 0.0625 C2.7675 1.3825 3.0975 2.7025 3.4375 4.0625 C2.4475 4.3925 1.4575 4.7225 0.4375 5.0625 C-0.8825 3.7425 -2.2025 2.4225 -3.5625 1.0625 C-2.5625 0.0625 -2.5625 0.0625 0 0 Z " fill="#D8D1EE" transform="translate(292.5625,496.9375)"/>
<path d="M0 0 C3.0916909 2.52956528 3.90931332 5.22454612 5 9 C3.68 8.67 2.36 8.34 1 8 C0.67 5.36 0.34 2.72 0 0 Z " fill="#27223D" transform="translate(440,263)"/>
<path d="M0 0 C-2 3 -2 3 -5.125 3.6875 C-6.07375 3.790625 -7.0225 3.89375 -8 4 C-7 1 -7 1 -5.125 -0.25 C-3 -1 -3 -1 0 0 Z " fill="#D1C6E8" transform="translate(374,379)"/>
<path d="M0 0 C3.08089673 2.77280706 4.68775452 5.06326356 6 9 C5.01 8.67 4.02 8.34 3 8 C3 7.34 3 6.68 3 6 C2.34 6 1.68 6 1 6 C0.67 4.02 0.34 2.04 0 0 Z " fill="#CCC5E0" transform="translate(403,270)"/>
<path d="M0 0 C0.66 0.33 1.32 0.66 2 1 C2 1.99 2 2.98 2 4 C0.1875 4.625 0.1875 4.625 -2 5 C-2.99 4.34 -3.98 3.68 -5 3 C-2.625 1.4375 -2.625 1.4375 0 0 Z " fill="#28243C" transform="translate(425,432)"/>
<path d="M0 0 C0.66 0 1.32 0 2 0 C2.625 2.375 2.625 2.375 3 5 C2.34 5.66 1.68 6.32 1 7 C0.01 6.01 -0.98 5.02 -2 4 C-1.34 2.68 -0.68 1.36 0 0 Z " fill="#181429" transform="translate(397,258)"/>
<path d="M0 0 C-1.26239712 0.86658615 -2.53527501 1.71792059 -3.8125 2.5625 C-4.87404297 3.27599609 -4.87404297 3.27599609 -5.95703125 4.00390625 C-8 5 -8 5 -11 4 C-3.77464789 -1.88732394 -3.77464789 -1.88732394 0 0 Z " fill="#332D47" transform="translate(314,218)"/>
<path d="M0 0 C1.32 0.66 2.64 1.32 4 2 C4 3.65 4 5.3 4 7 C2.02 5.35 0.04 3.7 -2 2 C-1.34 1.34 -0.68 0.68 0 0 Z " fill="#BBB4D1" transform="translate(283,489)"/>
<path d="M0 0 C3.73584906 1.47169811 3.73584906 1.47169811 5 4 C3.68 4.33 2.36 4.66 1 5 C0.01 3.68 -0.98 2.36 -2 1 C-1.34 0.67 -0.68 0.34 0 0 Z " fill="#CDC1DF" transform="translate(235,441)"/>
<path d="M0 0 C2.15377564 2.62198774 3.40072174 4.64404172 4 8 C2.68 7.67 1.36 7.34 0 7 C0 4.69 0 2.38 0 0 Z " fill="#CAC3E1" transform="translate(473,250)"/>
<path d="M0 0 C0.33 0.66 0.66 1.32 1 2 C-0.98 4.64 -2.96 7.28 -5 10 C-5.33 9.34 -5.66 8.68 -6 8 C-4.02 5.36 -2.04 2.72 0 0 Z " fill="#38334B" transform="translate(269,248)"/>
<path d="M0 0 C2 2 2 2 2.125 4.625 C2.08375 5.40875 2.0425 6.1925 2 7 C0.35 5.35 -1.3 3.7 -3 2 C-2.01 1.34 -1.02 0.68 0 0 Z " fill="#1A162D" transform="translate(286,232)"/>
<path d="M0 0 C3.96 1.98 3.96 1.98 8 4 C4 5 4 5 1.75 4.0625 C1.1725 3.711875 0.595 3.36125 0 3 C0 2.01 0 1.02 0 0 Z " fill="#242038" transform="translate(401,224)"/>
<path d="M0 0 C0.625 1.875 0.625 1.875 1 4 C-1.1385485 6.1385485 -2.13275314 6.42655063 -5 7 C-3.70700306 4.11562221 -2.34058637 2.12780579 0 0 Z " fill="#B8B3CD" transform="translate(250,217)"/>
<path d="M0 0 C2.97 0.99 5.94 1.98 9 3 C8.67 3.66 8.34 4.32 8 5 C4.5625 4.1875 4.5625 4.1875 1 3 C0.67 2.01 0.34 1.02 0 0 Z " fill="#2A253E" transform="translate(381,215)"/>
<path d="M0 0 C1.0625 1.875 1.0625 1.875 2 4 C1.67 4.66 1.34 5.32 1 6 C-0.98 6 -2.96 6 -5 6 C-3.35 4.02 -1.7 2.04 0 0 Z " fill="#D6CDE8" transform="translate(261,207)"/>
<path d="M0 0 C0.66 0 1.32 0 2 0 C2.33 1.32 2.66 2.64 3 4 C1.02 4.99 1.02 4.99 -1 6 C-1.625 4.125 -1.625 4.125 -2 2 C-1.34 1.34 -0.68 0.68 0 0 Z " fill="#1A152E" transform="translate(262,201)"/>
<path d="M0 0 C2.67927341 4.01891012 2.15601248 6.24161923 2 11 C-0.15157675 7.77263488 -1.19090344 6.17269253 -0.5625 2.3125 C-0.376875 1.549375 -0.19125 0.78625 0 0 Z " fill="#3C3851" transform="translate(452,295)"/>
<path d="M0 0 C1.65 1.65 3.3 3.3 5 5 C4.01 5.495 4.01 5.495 3 6 C0.875 5.0625 0.875 5.0625 -1 4 C-0.67 2.68 -0.34 1.36 0 0 Z " fill="#2F2843" transform="translate(374,290)"/>
<path d="M0 0 C0.99 0 1.98 0 3 0 C3.33 1.98 3.66 3.96 4 6 C2.35 6 0.7 6 -1 6 C-0.67 4.02 -0.34 2.04 0 0 Z " fill="#18172D" transform="translate(251,280)"/>
<path d="M0 0 C0.99 0 1.98 0 3 0 C3.66 1.65 4.32 3.3 5 5 C4.01 5 3.02 5 2 5 C0.3125 3 0.3125 3 -1 1 C-0.67 0.67 -0.34 0.34 0 0 Z " fill="#CEC8E4" transform="translate(419,234)"/>
<path d="M0 0 C0.66 0.99 1.32 1.98 2 3 C1.67 3.66 1.34 4.32 1 5 C-0.32 5 -1.64 5 -3 5 C-2.625 3.0625 -2.625 3.0625 -2 1 C-1.34 0.67 -0.68 0.34 0 0 Z " fill="#DFD4F1" transform="translate(246,223)"/>
</svg>
