<?xml version="1.0" standalone="no"?>
<!DOCTYPE svg PUBLIC "-//W3C//DTD SVG 20010904//EN"
 "http://www.w3.org/TR/2001/REC-SVG-20010904/DTD/svg10.dtd">
<svg version="1.0" xmlns="http://www.w3.org/2000/svg"
 width="300.000000pt" height="300.000000pt" viewBox="0 0 300.000000 300.000000"
 preserveAspectRatio="xMidYMid meet">
<metadata>
Created by potrace 1.10, written by Peter Selinger 2001-2011
</metadata>
<g transform="translate(0.000000,300.000000) scale(0.100000,-0.100000)"
fill="#000000" stroke="none">
<path d="M1386 2549 c-62 -15 -137 -57 -198 -112 -31 -29 -76 -67 -98 -86 -67
-56 -98 -130 -116 -279 -12 -101 -28 -169 -80 -332 -36 -113 -71 -223 -79
-245 -46 -134 -106 -352 -115 -418 -13 -107 2 -211 46 -306 50 -108 157 -212
284 -275 l95 -47 22 -107 c27 -126 58 -193 96 -206 18 -7 31 -6 38 1 18 18 29
84 29 182 0 85 2 92 18 86 28 -13 263 -18 320 -7 l52 9 1 -81 c0 -96 12 -173
27 -188 21 -21 65 4 91 50 13 24 33 93 45 153 l23 110 92 45 c243 119 368 342
331 589 -12 77 -51 211 -190 645 -63 198 -85 301 -82 385 1 36 -30 124 -64
182 -14 25 -48 59 -82 82 -31 21 -70 53 -87 70 -41 44 -102 78 -171 96 -63 16
-186 18 -248 4z m284 -57 c37 -13 75 -38 115 -75 33 -31 63 -57 67 -57 4 0 24
-15 44 -32 34 -30 94 -136 94 -165 0 -33 -103 -28 -147 6 -14 12 -38 21 -52
21 -15 0 -31 4 -37 10 -21 21 -347 33 -429 15 -74 -16 -163 -44 -170 -55 -9
-15 -91 -23 -114 -11 -18 10 -19 15 -10 39 34 84 54 115 97 148 26 19 73 60
105 91 31 30 57 53 57 49 0 -3 22 3 48 13 69 27 87 30 187 26 56 -2 111 -10
145 -23z m89 -328 c132 -25 116 -38 -38 -30 -142 7 -175 1 -193 -39 l-11 -25
-33 36 -34 36 -147 -7 c-152 -7 -175 0 -76 24 140 34 370 36 532 5z m-709 -69
c-7 -9 -10 -46 -8 -99 2 -54 -1 -85 -7 -83 -5 2 -11 27 -13 55 -2 39 -7 52
-18 52 -22 0 -9 59 18 82 23 20 45 14 28 -7z m286 15 l123 0 16 -30 c9 -18 23
-30 35 -30 12 0 26 12 35 30 l16 30 118 0 c65 0 145 3 178 6 53 6 63 4 82 -15
18 -18 21 -33 21 -110 0 -70 -3 -91 -17 -102 -19 -16 -158 -22 -212 -9 -27 6
-9 8 74 9 72 1 115 5 123 13 17 17 16 172 0 186 -18 14 -337 15 -354 1 -9 -8
-14 -34 -14 -75 0 -36 -4 -64 -10 -64 -5 0 -10 5 -10 10 0 14 -54 12 -68 -2
-9 -9 -12 3 -12 54 0 44 -5 69 -14 77 -17 15 -321 14 -348 -1 -15 -7 -18 -23
-18 -92 0 -60 4 -87 14 -95 10 -8 49 -11 120 -9 106 3 140 -5 69 -16 -21 -3
-71 -5 -112 -4 -102 2 -111 12 -111 121 0 60 4 89 16 106 16 22 22 23 77 17
33 -3 115 -6 183 -6z m674 -21 c13 -23 13 -69 0 -69 -5 0 -10 -15 -11 -32 -1
-18 -5 -44 -9 -58 -5 -17 -8 6 -9 67 -1 50 -6 95 -11 98 -15 9 -2 25 16 18 8
-3 19 -14 24 -24z m-790 -24 c-4 -20 -103 -116 -111 -108 -5 5 13 33 43 65 49
52 72 67 68 43z m480 -80 c-41 -42 -80 -73 -87 -70 -7 2 -13 0 -13 -5 0 -6 -6
-10 -14 -10 -20 0 -29 -30 -14 -47 10 -12 9 -18 -7 -30 -31 -22 -63 -26 -95
-13 -38 16 -45 27 -30 45 15 18 -3 45 -29 45 -13 1 -13 3 4 16 15 12 38 15
102 12 l82 -4 78 78 c51 52 81 74 87 68 7 -7 -15 -35 -64 -85z m125 -5 c-79
-80 -95 -91 -95 -68 0 22 153 169 164 158 7 -7 -16 -37 -69 -90z m-521 82 c8
-13 -141 -155 -154 -147 -8 5 12 32 61 81 73 74 83 81 93 66z m94 2 c19 -6 22
-13 22 -58 0 -51 -1 -53 -40 -75 -38 -21 -49 -22 -122 -5 -5 1 -11 2 -14 3
-11 2 111 141 124 141 4 0 17 -3 30 -6z m264 -15 c-5 -21 -33 -49 -49 -49 -13
0 -19 51 -7 63 11 11 59 -1 56 -14z m238 -88 c0 -23 -5 -30 -26 -35 -15 -4
-28 -5 -30 -4 -8 9 10 48 22 48 8 0 14 5 14 10 0 6 5 10 10 10 6 0 10 -13 10
-29z m-864 -102 c19 -26 41 -50 49 -53 8 -3 38 -1 66 4 29 6 54 10 56 10 2 0
-22 -24 -54 -54 -32 -30 -69 -72 -83 -95 -14 -22 -32 -41 -40 -41 -8 0 -46
-11 -84 -25 -39 -13 -71 -23 -73 -22 -1 2 20 70 47 152 26 83 54 170 61 195
l13 45 4 -35 c2 -19 19 -55 38 -81z m994 77 c0 -6 25 -88 55 -181 30 -92 54
-170 52 -171 -1 -2 -40 10 -86 25 -74 25 -88 33 -116 72 -17 24 -55 66 -84 92
-58 51 -58 52 19 37 43 -8 58 -7 77 5 28 19 63 85 63 120 0 15 4 24 10 20 6
-3 10 -12 10 -19z m-622 -55 c11 -7 12 -12 1 -29 -17 -27 -2 -45 56 -68 43
-16 45 -16 100 10 l57 26 -17 26 c-13 21 -14 28 -4 34 18 12 90 -13 145 -50
51 -35 184 -166 184 -182 0 -6 -14 -7 -32 -3 -50 11 -50 11 -55 -2 -3 -7 10
-14 34 -18 84 -14 79 -10 101 -87 10 -40 18 -74 17 -76 -2 -2 -27 4 -56 12
-62 19 -79 20 -79 6 0 -12 0 -12 83 -35 56 -15 57 -16 57 -51 0 -19 -5 -55
-11 -80 l-12 -45 -36 35 c-20 20 -40 36 -44 36 -17 0 -4 -22 31 -54 l37 -35
-34 -35 c-53 -55 -121 -79 -221 -80 -74 -1 -92 3 -137 27 l-53 27 0 95 c0 79
-3 95 -16 95 -13 0 -15 -14 -13 -92 2 -107 -5 -117 -99 -144 -106 -31 -245 1
-313 73 l-34 35 44 38 c29 25 39 40 31 45 -7 4 -25 -6 -46 -26 -18 -18 -36
-30 -40 -27 -3 3 -11 36 -17 73 -13 78 -13 78 76 97 34 7 57 17 57 25 0 17
-14 16 -74 -2 -27 -8 -52 -13 -54 -10 -7 7 27 126 40 142 6 7 22 13 37 13 42
0 71 11 71 27 0 9 -6 12 -17 9 -10 -3 -31 -8 -47 -12 -26 -6 -27 -5 -17 14 34
63 191 193 266 220 38 13 37 13 53 3z m-401 -357 c-21 -81 -21 -81 -69 -103
-26 -12 -68 -38 -94 -57 -25 -19 -48 -34 -49 -32 -5 5 58 204 66 213 6 5 162
63 165 61 1 -1 -8 -37 -19 -82z m1077 48 l69 -27 33 -105 c18 -57 32 -105 31
-107 -2 -1 -31 18 -67 42 -35 25 -78 50 -96 57 -28 10 -33 17 -39 57 -4 25
-13 61 -20 79 -13 29 -12 32 3 32 9 -1 48 -13 86 -28z m-1083 -264 l12 -66
-35 -49 c-43 -59 -89 -148 -81 -157 12 -11 22 -6 29 16 9 30 86 158 95 158 4
0 9 -11 13 -23 3 -13 15 -36 27 -50 19 -26 21 -41 24 -250 2 -145 8 -253 18
-312 9 -49 15 -90 14 -91 -1 -2 -34 13 -73 32 -142 70 -258 193 -300 321 -31
93 -26 241 10 374 21 73 34 105 42 102 7 -3 28 7 47 21 19 14 58 39 88 56 54
29 54 29 56 7 2 -12 8 -52 14 -89z m1152 35 c27 -19 54 -32 60 -30 19 6 67
-167 74 -265 11 -164 -35 -296 -142 -403 -60 -60 -148 -121 -220 -151 -38 -15
-38 -15 -31 8 21 72 37 269 35 429 -2 175 -2 175 24 214 15 22 27 45 27 52 0
7 3 13 8 13 10 0 80 -111 95 -149 12 -32 21 -38 32 -21 6 10 -49 111 -92 168
-20 26 -24 40 -18 65 4 18 9 58 12 89 l5 58 41 -21 c23 -12 64 -37 90 -56z
m-992 -210 c19 -9 60 -19 92 -21 54 -4 58 -6 53 -26 -9 -33 -25 -460 -25 -689
0 -218 -7 -261 -38 -235 -39 32 -80 188 -118 453 -16 109 -21 535 -7 535 5 0
24 -8 43 -17z m742 -110 c9 -170 -7 -379 -43 -571 -36 -192 -55 -254 -86 -283
l-23 -22 -11 27 c-6 16 -10 134 -10 289 0 245 -13 574 -25 625 -5 20 -2 22 42
23 27 0 68 8 93 19 25 10 48 18 51 19 3 1 9 -56 12 -126z m-286 49 l48 -7 3
-46 c2 -32 -2 -51 -12 -62 -18 -17 -99 -37 -154 -37 -49 0 -143 26 -154 42 -4
7 -7 33 -6 58 l3 45 48 7 c26 3 62 15 79 26 31 20 31 20 64 0 18 -11 55 -23
81 -26z m-247 -172 c0 -8 -9 -21 -20 -28 -19 -11 -20 -10 -18 16 1 19 7 28 20
28 10 0 18 -7 18 -16z m306 5 c9 -24 -5 -37 -22 -20 -15 15 -11 35 7 35 5 0
12 -7 15 -15z m-32 -69 c39 -82 46 -252 16 -367 l-12 -47 -70 -7 c-39 -3 -103
-3 -143 0 l-73 7 -12 47 c-22 84 -24 229 -6 301 22 86 29 92 96 81 54 -8 153
-1 167 12 12 13 21 7 37 -27z"/>
</g>
</svg>
