<?xml version="1.0" encoding="UTF-8"?>
<svg version="1.1" xmlns="http://www.w3.org/2000/svg" width="2226" height="2226">
<path d="M0 0 C1.03690987 3.1107296 0.98010952 4.13115673 0.44140625 7.25 C-9.32647351 70.1445124 4.76005451 136.24386034 24 196 C24.20753906 196.64559875 24.41507813 197.29119751 24.62890625 197.95635986 C38.89639925 242.18531464 58.13423123 284.90370088 82.34765625 324.60546875 C85.63938145 330.02334619 88.82054857 335.50646555 92.01800537 340.98025513 C98.41467231 351.92886461 104.87444208 362.83609659 111.41357422 373.70043945 C115.88811462 381.13740577 120.32890827 388.59364206 124.75 396.0625 C125.73540771 397.72671997 125.73540771 397.72671997 126.74072266 399.42456055 C129.203975 403.5854117 131.66680717 407.74651125 134.12884521 411.90808105 C144.94712611 430.19357949 155.84934132 448.42281987 166.90722656 466.56445312 C170.09008565 471.78751113 173.26229518 477.01703654 176.43548584 482.24597168 C178.206571 485.16423585 179.97831841 488.08209789 181.75 491 C182.45833652 492.16666473 183.16666985 493.3333314 183.875 494.5 C184.225625 495.0775 184.57625 495.655 184.9375 496.25 C186.53125 498.875 186.53125 498.875 188.125 501.5 C188.47560486 502.07746475 188.82620972 502.6549295 189.18743896 503.24989319 C189.89598318 504.41691138 190.60451996 505.58393409 191.31304932 506.7509613 C193.08059529 509.66228663 194.84826915 512.57353416 196.61621094 515.48461914 C199.84307953 520.798255 203.06888851 526.11252227 206.29011536 531.42958069 C213.5631348 543.43450486 220.85466896 555.42610657 228.26318359 567.34814453 C232.1732779 573.64591548 236.03092883 579.97425367 239.875 586.3125 C245.3034599 595.2592243 250.8251436 604.14380664 256.38745117 613.0078125 C260.71120086 619.90876154 264.96744694 626.8477207 269.1875 633.8125 C273.82000676 641.45594319 278.526146 649.04468424 283.32104492 656.5871582 C287.61252399 663.351693 291.81073778 670.1717936 296 677 C301.11096209 685.32748334 306.25852321 693.6280202 311.4921875 701.87890625 C315.52315025 708.23500654 319.51538008 714.61475839 323.5 721 C328.45810751 728.94323751 333.43748036 736.87227774 338.44580078 744.78393555 C342.44744391 751.11110956 346.41300593 757.46044225 350.375 763.8125 C356.41928899 773.49926638 362.52811275 783.14313277 368.66796875 792.76953125 C371.79319492 797.67055654 374.89967161 802.58319782 378 807.5 C384.04562904 817.08441107 390.12980003 826.64410714 396.21777344 836.20166016 C399.14654814 840.80023764 402.07315036 845.40019715 405 850 C405.57878906 850.90943359 406.15757812 851.81886719 406.75390625 852.75585938 C409.64684278 857.30144228 412.53904031 861.8474921 415.4296875 866.39453125 C426.48944964 883.78896334 437.55915678 901.17761912 448.77807617 918.4699707 C452.87834198 924.79650813 456.93921129 931.14807354 461 937.5 C469.99128178 951.56167186 479.06517468 965.56809745 488.16479492 979.55981445 C492.06404218 985.55630094 495.95254761 991.55964236 499.8359375 997.56640625 C503.38218676 1003.04976855 506.93966457 1008.52577534 510.5 1014 C514.50753345 1020.16181787 518.50918298 1026.32734215 522.5 1032.5 C536.67207976 1054.41253025 550.96906985 1076.24257488 565.2890625 1098.05859375 C565.94802521 1099.06250656 565.94802521 1099.06250656 566.62030029 1100.08670044 C568.40466548 1102.80508523 570.18904264 1105.52346212 571.97363281 1108.24169922 C577.00535941 1115.90605144 582.03123812 1123.57409918 587.04272461 1131.25170898 C603.50032568 1156.46261066 620.02762599 1181.63205584 636.77490234 1206.65161133 C641.00738054 1212.98485338 645.20330278 1219.34130148 649.38671875 1225.70703125 C664.88892324 1249.29155995 680.54352337 1272.76432697 696.36470032 1296.1361084 C699.96741332 1301.46190835 703.54380451 1306.80445296 707.10401917 1312.15872192 C713.23183433 1321.36570474 719.43615552 1330.52149394 725.625 1339.6875 C739.83537539 1360.73531576 739.83537539 1360.73531576 746.05371094 1370.08520508 C750.27699551 1376.41006641 754.54874476 1382.7023845 758.8125 1389 C759.82878697 1390.50162021 760.84506284 1392.00324793 761.86132812 1393.50488281 C775.59800515 1413.79953162 789.35712588 1434.07870183 803.171875 1454.3203125 C805.07407834 1457.10858491 806.9747328 1459.89790775 808.875 1462.6875 C815.79097287 1472.83925938 822.72172257 1482.98037315 829.68945312 1493.09667969 C831.50040937 1495.72674952 833.30934117 1498.35820877 835.11816406 1500.98974609 C836.03141057 1502.31831001 836.94481914 1503.64676255 837.85839844 1504.97509766 C840.25200812 1508.45554017 842.64324397 1511.93758487 845.03125 1515.421875 C845.52818359 1516.14632812 846.02511719 1516.87078125 846.53710938 1517.6171875 C847.4870321 1519.00212157 848.4362897 1520.38751218 849.38476562 1521.7734375 C851.14583495 1524.33979339 852.89978456 1526.871275 854.8125 1529.328125 C856 1531 856 1531 856 1533 C851.25369854 1531.41789951 847.62872563 1528.78180151 843.625 1525.875 C842.09958616 1524.78297664 840.57350885 1523.69187965 839.046875 1522.6015625 C838.23154297 1522.01793945 837.41621094 1521.43431641 836.57617188 1520.83300781 C832.03485734 1517.60175407 827.45373837 1514.42789109 822.875 1511.25 C820.9036351 1509.88022379 818.93228104 1508.51043195 816.9609375 1507.140625 C815.97448242 1506.45548828 814.98802734 1505.77035156 813.97167969 1505.06445312 C809.14609104 1501.71207245 804.32313736 1498.35590597 799.5 1495 C793.71554165 1490.9755578 787.93074201 1486.95160985 782.14453125 1482.9296875 C772.26865217 1476.06410311 762.4016399 1469.18631358 752.55126953 1462.28417969 C743.35740695 1455.84465798 734.14020802 1449.43875575 724.92333984 1443.03222656 C720.11469838 1439.68938945 715.30741108 1436.34460619 710.5 1433 C708.58333997 1431.66665713 706.6666733 1430.3333238 704.75 1429 C700.91666667 1426.33333333 697.08333333 1423.66666667 693.25 1421 C692.3010083 1420.33983887 691.3520166 1419.67967773 690.37426758 1418.99951172 C688.46001577 1417.66784415 686.54579046 1416.3361385 684.6315918 1415.00439453 C679.80319568 1411.64526025 674.97432293 1408.28681497 670.14453125 1404.9296875 C660.26865217 1398.06410311 650.4016399 1391.18631358 640.55126953 1384.28417969 C631.35740695 1377.84465798 622.14020802 1371.43875575 612.92333984 1365.03222656 C607.1585586 1361.02470701 601.39561037 1357.01455202 595.63232422 1353.00488281 C590.80367052 1349.64560511 585.97456382 1346.28698241 581.14453125 1342.9296875 C571.26865217 1336.06410311 561.4016399 1329.18631358 551.55126953 1322.28417969 C542.35740695 1315.84465798 533.14020802 1309.43875575 523.92333984 1303.03222656 C519.11469838 1299.68938945 514.30741108 1296.34460619 509.5 1293 C507.58333997 1291.66665713 505.6666733 1290.3333238 503.75 1289 C499.91666667 1286.33333333 496.08333333 1283.66666667 492.25 1281 C491.3010083 1280.33983887 490.3520166 1279.67967773 489.37426758 1278.99951172 C487.46001577 1277.66784415 485.54579046 1276.3361385 483.6315918 1275.00439453 C478.80319568 1271.64526025 473.97432293 1268.28681497 469.14453125 1264.9296875 C459.26865217 1258.06410311 449.4016399 1251.18631358 439.55126953 1244.28417969 C430.35740695 1237.84465798 421.14020802 1231.43875575 411.92333984 1225.03222656 C407.11469838 1221.68938945 402.30741108 1218.34460619 397.5 1215 C395.58333997 1213.66665713 393.6666733 1212.3333238 391.75 1211 C387.91666667 1208.33333333 384.08333333 1205.66666667 380.25 1203 C379.3010083 1202.33983887 378.3520166 1201.67967773 377.37426758 1200.99951172 C375.46001577 1199.66784415 373.54579046 1198.3361385 371.6315918 1197.00439453 C366.80319568 1193.64526025 361.97432293 1190.28681497 357.14453125 1186.9296875 C347.26865217 1180.06410311 337.4016399 1173.18631358 327.55126953 1166.28417969 C318.35740695 1159.84465798 309.14020802 1153.43875575 299.92333984 1147.03222656 C294.1585586 1143.02470701 288.39561037 1139.01455202 282.63232422 1135.00488281 C277.80367052 1131.64560511 272.97456382 1128.28698241 268.14453125 1124.9296875 C258.26865217 1118.06410311 248.4016399 1111.18631358 238.55126953 1104.28417969 C232.27164094 1099.88583196 225.9818081 1095.50231112 219.6875 1091.125 C218.73367432 1090.46161621 217.77984863 1089.79823242 216.79711914 1089.11474609 C211.84023655 1085.6680368 206.8817859 1082.22359996 201.921875 1078.78125 C197.10360594 1075.43642309 192.2895601 1072.08561368 187.47949219 1068.72900391 C185.95275304 1067.66437545 184.42498191 1066.60122295 182.89550781 1065.54052734 C173.20805696 1058.81744648 164.05760163 1051.54377063 155 1044 C154.4023584 1043.50290527 153.8047168 1043.00581055 153.18896484 1042.49365234 C146.85065866 1037.20846916 140.61017868 1031.82759564 134.51171875 1026.265625 C132.4176643 1024.37674229 130.3034159 1022.51863473 128.17578125 1020.66796875 C118.25751878 1012.00408497 108.76593433 1002.85470101 99.4375 993.5625 C98.47457031 992.60645874 98.47457031 992.60645874 97.4921875 991.63110352 C93.73357398 987.86022939 90.17436272 983.96858502 86.69458008 979.93969727 C84.08202328 976.94924001 81.34934632 974.07570737 78.625 971.1875 C73.95441984 966.19589254 69.50382523 961.09756213 65.23046875 955.7578125 C63.22056132 953.27270804 61.15856793 950.84201925 59.0715332 948.42163086 C52.90032754 941.24674701 47.20177666 933.77498462 41.59326172 926.15527344 C39.97143918 923.96136455 38.33312432 921.78061369 36.69140625 919.6015625 C-20.28135103 843.64875671 -60.7780356 755.21555711 -104.1875 507.5625 C-104.3146489 506.1220784 -104.3146489 506.1220784 -104.44436646 504.65255737 C-104.68851359 501.8740871 -104.92889923 499.0953176 -105.16796875 496.31640625 C-105.2375882 495.52501251 -105.30720764 494.73361877 -105.37893677 493.91824341 C-105.60296838 491.27987617 -105.80506076 488.64068305 -106 486 C-106.08808929 484.83380127 -106.17617859 483.66760254 -106.26693726 482.46606445 C-107.17394562 469.52429408 -107.18224242 456.58550724 -107.203125 443.6171875 C-107.20595238 442.41166355 -107.20877975 441.2061396 -107.21169281 439.96408463 C-107.22661506 433.55564413 -107.23588253 427.14722565 -107.24023438 420.73876953 C-107.24457532 415.54989419 -107.2583052 410.36118924 -107.28125 405.17236328 C-107.42505355 371.99325907 -106.73757127 339.0747022 -104 306 C-103.94334042 305.31281576 -103.88668083 304.62563152 -103.82830429 303.91762352 C-99.4817766 251.73604044 -84.37180706 199.52697327 -68 150 C-67.76708252 149.2937146 -67.53416504 148.5874292 -67.29418945 147.85974121 C-53.82991293 107.16431642 -36.61053388 67.70601479 -16.51806641 29.8671875 C-15.04479983 27.08461389 -13.58781844 24.29418708 -12.13671875 21.5 C-11.2578722 19.81246891 -10.37896934 18.12496714 -9.5 16.4375 C-8.92245972 15.32266235 -8.92245972 15.32266235 -8.33325195 14.18530273 C-5.77685116 9.30714123 -2.98077408 4.6306232 0 0 Z " fill="#52AAFE" transform="translate(220,693)"/>
<path d="M0 0 C3.39236201 1.2526782 6.21621196 2.67107535 9.16015625 4.765625 C9.94302002 5.31847168 10.72588379 5.87131836 11.5324707 6.44091797 C12.36738037 7.03791504 13.20229004 7.63491211 14.0625 8.25 C15.86970788 9.52876425 17.67700188 10.8074068 19.484375 12.0859375 C20.40412109 12.73916992 21.32386719 13.39240234 22.27148438 14.06542969 C26.43901413 17.02028883 30.62551398 19.94780765 34.8125 22.875 C35.63073242 23.44782715 36.44896484 24.0206543 37.29199219 24.61083984 C46.53947846 31.08336365 55.80817909 37.52536878 65.07666016 43.96777344 C70.8414414 47.97529299 76.60438963 51.98544798 82.36767578 55.99511719 C87.19632948 59.35439489 92.02543618 62.71301759 96.85546875 66.0703125 C106.73134783 72.93589689 116.5983601 79.81368642 126.44873047 86.71582031 C135.64259305 93.15534202 144.85979198 99.56124425 154.07666016 105.96777344 C158.88530162 109.31061055 163.69258892 112.65539381 168.5 116 C170.41666003 117.33334287 172.3333267 118.6666762 174.25 120 C178.08333333 122.66666667 181.91666667 125.33333333 185.75 128 C186.6989917 128.66016113 187.6479834 129.32032227 188.62573242 130.00048828 C190.53998423 131.33215585 192.45420954 132.6638615 194.3684082 133.99560547 C199.19680432 137.35473975 204.02567707 140.71318503 208.85546875 144.0703125 C218.73134783 150.93589689 228.5983601 157.81368642 238.44873047 164.71582031 C247.64259305 171.15534202 256.85979198 177.56124425 266.07666016 183.96777344 C271.8414414 187.97529299 277.60438963 191.98544798 283.36767578 195.99511719 C288.19632948 199.35439489 293.02543618 202.71301759 297.85546875 206.0703125 C307.73134783 212.93589689 317.5983601 219.81368642 327.44873047 226.71582031 C336.64259305 233.15534202 345.85979198 239.56124425 355.07666016 245.96777344 C359.88530162 249.31061055 364.69258892 252.65539381 369.5 256 C371.41666003 257.33334287 373.3333267 258.6666762 375.25 260 C379.08333333 262.66666667 382.91666667 265.33333333 386.75 268 C387.6989917 268.66016113 388.6479834 269.32032227 389.62573242 270.00048828 C391.53998423 271.33215585 393.45420954 272.6638615 395.3684082 273.99560547 C400.19680432 277.35473975 405.02567707 280.71318503 409.85546875 284.0703125 C419.73134783 290.93589689 429.5983601 297.81368642 439.44873047 304.71582031 C448.64259305 311.15534202 457.85979198 317.56124425 467.07666016 323.96777344 C471.88530162 327.31061055 476.69258892 330.65539381 481.5 334 C483.41666003 335.33334287 485.3333267 336.6666762 487.25 338 C491.08333333 340.66666667 494.91666667 343.33333333 498.75 346 C499.6989917 346.66016113 500.6479834 347.32032227 501.62573242 348.00048828 C503.53998423 349.33215585 505.45420954 350.6638615 507.3684082 351.99560547 C512.19680432 355.35473975 517.02567707 358.71318503 521.85546875 362.0703125 C531.73134783 368.93589689 541.5983601 375.81368642 551.44873047 382.71582031 C560.64259305 389.15534202 569.85979198 395.56124425 579.07666016 401.96777344 C584.8414414 405.97529299 590.60438963 409.98544798 596.36767578 413.99511719 C601.19632948 417.35439489 606.02543618 420.71301759 610.85546875 424.0703125 C620.72484068 430.9313732 630.58635347 437.80321933 640.42895508 444.70263672 C645.90110828 448.53657392 651.38427181 452.35434299 656.87280273 456.16479492 C660.74200341 458.85218559 664.60772615 461.54454119 668.47216797 464.23876953 C670.01954598 465.31688282 671.56783084 466.3936978 673.11767578 467.46826172 C682.80057504 474.18838932 691.94657498 481.45970792 701 489 C701.5976416 489.49709473 702.1952832 489.99418945 702.81103516 490.50634766 C709.14934134 495.79153084 715.38982132 501.17240436 721.48828125 506.734375 C723.5823357 508.62325771 725.6965841 510.48136527 727.82421875 512.33203125 C737.74248122 520.99591503 747.23406567 530.14529899 756.5625 539.4375 C757.20445312 540.07486084 757.84640625 540.71222168 758.5078125 541.36889648 C762.26642602 545.13977061 765.82563728 549.03141498 769.30541992 553.06030273 C771.91797672 556.05075999 774.65065368 558.92429263 777.375 561.8125 C782.04558016 566.80410746 786.49617477 571.90243787 790.76953125 577.2421875 C792.77943868 579.72729196 794.84143207 582.15798075 796.9284668 584.57836914 C803.09967246 591.75325299 808.79822334 599.22501538 814.40673828 606.84472656 C816.02856082 609.03863545 817.66687568 611.21938631 819.30859375 613.3984375 C872.24604008 683.97159864 911.38026049 765.74383749 960.9185791 1059.03009033 C960.99674277 1060.92119411 961.08363127 1062.81193116 961.17089844 1064.70263672 C963.41391594 1113.71057821 962.42652837 1163.04378079 960.25585938 1212.03125 C960.06265206 1216.41709084 959.90336743 1220.80245252 959.76977539 1225.19046021 C958.18289082 1275.71427823 942.27446214 1327.15074521 926.67980957 1374.91625977 C926.03624383 1376.88890607 925.39790262 1378.86316791 924.76074219 1380.83789062 C911.06892738 1422.97180452 893.40001096 1463.92853341 872.58398438 1503.01708984 C871.06653855 1505.87469667 869.56846586 1508.74146187 868.078125 1511.61328125 C867.19800755 1513.30473479 866.31780517 1514.99614415 865.4375 1516.6875 C865.0561792 1517.42339355 864.6748584 1518.15928711 864.28198242 1518.91748047 C861.74202816 1523.7602739 858.95824357 1528.40128291 856 1533 C854.9481709 1529.84451271 855.040084 1528.68915658 855.55859375 1525.49609375 C860.26338753 1493.49968209 859.29149716 1460.85372868 854 1429 C853.87884827 1428.26821533 853.75769653 1427.53643066 853.63287354 1426.7824707 C848.18351499 1394.1719984 840.30652873 1362.42573038 830 1331 C829.64856934 1329.91589844 829.29713867 1328.83179688 828.93505859 1327.71484375 C819.61577534 1299.1362872 807.46964324 1271.83528984 794 1245 C793.5452832 1244.09330566 793.09056641 1243.18661133 792.62207031 1242.25244141 C786.54539663 1230.22754025 779.75796427 1218.66247638 772.84521484 1207.10351562 C770.87639104 1203.79209882 768.92874247 1200.46870138 766.98828125 1197.140625 C766.64408646 1196.55049118 766.29989166 1195.96035736 765.94526672 1195.3523407 C765.59715439 1194.75548965 765.24904205 1194.15863861 764.89038086 1193.54370117 C758.14362723 1181.9765409 751.2867272 1170.48583732 744.30383301 1159.05975342 C739.24528227 1150.77610929 734.3195432 1142.42557374 729.5 1134 C724.03988131 1124.4574348 718.42184739 1115.02212893 712.69055176 1105.64083862 C706.79750679 1095.99428013 701.00373646 1086.29273378 695.25 1076.5625 C689.54050003 1066.91233223 683.7754775 1057.30617969 677.84179688 1047.79150391 C673.42448268 1040.705743 669.07869935 1033.57760505 664.75 1026.4375 C664.39243622 1025.8478949 664.03487244 1025.25828979 663.66647339 1024.65081787 C661.47479281 1021.03660998 659.28429671 1017.42168552 657.09429932 1013.80645752 C653.87682551 1008.49508643 650.65833083 1003.18433616 647.4375 997.875 C647.08662323 997.29657349 646.73574646 996.71814697 646.37423706 996.12219238 C640.5584735 986.53793971 634.69537507 976.98343987 628.81054688 967.44140625 C624.49187335 960.43584287 620.20564288 953.41143998 615.9375 946.375 C610.57095609 937.53235595 605.10968796 928.75244428 599.61181641 919.9909668 C595.28826511 913.09045325 591.03230705 906.15187329 586.8125 899.1875 C582.17999324 891.54405681 577.473854 883.95531576 572.67895508 876.4128418 C568.38747601 869.648307 564.18926222 862.8282064 560 856 C554.88903791 847.67251666 549.74147679 839.3719798 544.5078125 831.12109375 C540.47684975 824.76499346 536.48461992 818.38524161 532.5 812 C527.54189249 804.05676249 522.56251964 796.12772226 517.55419922 788.21606445 C513.55255609 781.88889044 509.58699407 775.53955775 505.625 769.1875 C499.58071101 759.50073362 493.47188725 749.85686723 487.33203125 740.23046875 C484.20680508 735.32944346 481.10032839 730.41680218 478 725.5 C471.95437096 715.91558893 465.87019997 706.35589286 459.78222656 696.79833984 C456.85345186 692.19976236 453.92684964 687.59980285 451 683 C450.13181641 681.63584961 450.13181641 681.63584961 449.24609375 680.24414062 C446.35315722 675.69855772 443.46095969 671.1525079 440.5703125 666.60546875 C432.41962473 653.78649134 424.23868111 640.98710835 416.04541016 628.1953125 C413.99072667 624.98551332 411.9383855 621.77422814 409.88671875 618.5625 C403.27175935 608.21012806 396.63452722 597.87400231 389.92407227 587.58325195 C385.66122771 581.03802161 381.45203408 574.45939406 377.25 567.875 C369.58160417 555.86516369 361.78925282 543.93872883 353.97802734 532.02148438 C347.11519589 521.53834416 340.30429175 511.02120066 333.5 500.5 C322.29666752 483.17823495 311.0189283 465.90588205 299.70730591 448.65470886 C296.90267499 444.37733204 294.09929426 440.09913864 291.296875 435.8203125 C286.93648357 429.16277211 282.57492746 422.50599596 278.21240234 415.84985352 C277.40670751 414.62054426 276.60104325 413.39121496 275.79541016 412.16186523 C264.83265483 395.433562 253.8476708 378.71996185 242.84393311 362.01858521 C241.59529234 360.12339757 240.34679254 358.22811705 239.09844971 356.33273315 C233.07782455 347.19231837 227.04824595 338.05842131 220.96875 328.95703125 C216.78797401 322.69780715 212.63581636 316.42049458 208.50390625 310.12890625 C193.10873846 286.69049184 177.5463111 263.3735261 161.82695007 240.15136719 C157.72587702 234.0874105 153.66025297 228.00051343 149.60548401 221.90553284 C143.24007522 212.34442344 136.80371128 202.83110252 130.375 193.3125 C116.32826292 172.51280314 116.32826292 172.51280314 109.51997375 162.2779541 C105.0724902 155.59682557 100.56847487 148.95425855 96.0625 142.3125 C95.14872032 140.96470994 94.23498428 139.61689029 93.32128906 138.26904297 C90.99702211 134.84073019 88.67201714 131.41291869 86.34674072 127.98529053 C85.05050205 126.07444733 83.75445794 124.16347236 82.45849609 122.25244141 C76.97495985 114.1665087 71.48890871 106.08228676 66 98 C65.62532593 97.44830139 65.25065186 96.89660278 64.86462402 96.32818604 C55.78969568 82.96648756 46.69830403 69.61634156 37.56933594 56.29150391 C35.38858899 53.10723339 33.2103686 49.92123736 31.03198242 46.73535156 C28.86726153 43.57008118 26.70116298 40.40575549 24.53466797 37.24169922 C23.54114199 35.79044953 22.54795564 34.33896724 21.55517578 32.88720703 C20.18384675 30.88229231 18.81109814 28.8783607 17.4375 26.875 C16.78406616 25.92113403 16.78406616 25.92113403 16.11743164 24.94799805 C13.66037139 21.37372275 11.17044497 17.82566901 8.6484375 14.296875 C8.0922876 13.51715332 7.5361377 12.73743164 6.96313477 11.93408203 C5.88193946 10.42159198 4.79663517 8.91202884 3.70678711 7.40576172 C3.22218018 6.72787598 2.73757324 6.04999023 2.23828125 5.3515625 C1.80555908 4.75166504 1.37283691 4.15176758 0.92700195 3.53369141 C0 2 0 2 0 0 Z " fill="#5170FE" transform="translate(1150,0)"/>
<path d="M0 0 C2.89258767 3.4596996 5.25007286 6.95175987 7.46875 10.875 C8.11602051 12.01412842 8.76329102 13.15325684 9.43017578 14.3269043 C10.12019219 15.55122726 10.81013181 16.77559351 11.5 18 C12.21945583 19.26953287 12.93935004 20.53881741 13.65966797 21.80786133 C15.10406779 24.35344747 16.54643871 26.90016601 17.98730469 29.44775391 C20.20900816 33.37300793 22.45137727 37.28625907 24.69677734 41.19799805 C36.79504703 62.28621274 48.58403258 83.53450668 60 105 C60.79301514 106.48910889 60.79301514 106.48910889 61.60205078 108.00830078 C65.12636579 114.64276027 68.5932448 121.30440677 72 128 C72.4650293 128.91249512 72.93005859 129.82499023 73.40917969 130.76513672 C117.58030078 218.19551881 127.98019154 320.72458432 94.82229614 470.20263672 C90.23409922 484.09714663 84.96314564 497.63966965 79 511 C78.55889893 512.01006104 78.55889893 512.01006104 78.10888672 513.04052734 C70.56462873 530.14974451 58.8874356 545.66680339 47 560 C46.55543457 560.5460791 46.11086914 561.0921582 45.65283203 561.65478516 C33.87888998 576.09373229 20.74505248 589.59265281 6 601 C4.92168 601.88723386 3.84634311 602.77810126 2.7734375 603.671875 C-7.0532195 611.80305393 -17.48579037 618.90054945 -28.06347656 626.01171875 C-33.0336814 629.37697883 -37.9534976 632.81408033 -42.875 636.25 C-49.23672154 640.68629685 -55.60263559 645.11523345 -62 649.5 C-68.52084879 653.97017076 -75.01255544 658.48150748 -81.5 663 C-88.60545183 667.94893338 -95.72131678 672.88128005 -102.86328125 677.77734375 C-108.76066835 681.82504121 -114.63054665 685.91193716 -120.5 690 C-127.60545183 694.94893338 -134.72131678 699.88128005 -141.86328125 704.77734375 C-147.76066835 708.82504121 -153.63054665 712.91193716 -159.5 717 C-166.60545183 721.94893338 -173.72131678 726.88128005 -180.86328125 731.77734375 C-186.76066835 735.82504121 -192.63054665 739.91193716 -198.5 744 C-205.60761777 748.95044195 -212.72550876 753.88450464 -219.86987305 758.78173828 C-225.70332348 762.78524635 -231.50778453 766.82998174 -237.3125 770.875 C-245.11218393 776.30928959 -252.93610306 781.70530126 -260.78955078 787.06152344 C-268.11243979 792.06244575 -275.38875757 797.12941965 -282.6640625 802.19921875 C-288.09718116 805.98416987 -293.53841137 809.75625534 -299 813.5 C-305.52082643 817.97020374 -312.01255512 822.48150726 -318.5 827 C-325.60545183 831.94893338 -332.72131678 836.88128005 -339.86328125 841.77734375 C-345.76066835 845.82504121 -351.63054665 849.91193716 -357.5 854 C-364.60545183 858.94893338 -371.72131678 863.88128005 -378.86328125 868.77734375 C-384.76066835 872.82504121 -390.63054665 876.91193716 -396.5 881 C-403.60545183 885.94893338 -410.72131678 890.88128005 -417.86328125 895.77734375 C-423.76066835 899.82504121 -429.63054665 903.91193716 -435.5 908 C-442.60545183 912.94893338 -449.72131678 917.88128005 -456.86328125 922.77734375 C-462.76066835 926.82504121 -468.63054665 930.91193716 -474.5 935 C-481.60545183 939.94893338 -488.72131678 944.88128005 -495.86328125 949.77734375 C-501.76066835 953.82504121 -507.63054665 957.91193716 -513.5 962 C-520.60545183 966.94893338 -527.72131678 971.88128005 -534.86328125 976.77734375 C-540.76066835 980.82504121 -546.63054665 984.91193716 -552.5 989 C-559.60761777 993.95044195 -566.72550876 998.88450464 -573.86987305 1003.78173828 C-579.70332388 1007.78524663 -585.5077499 1011.83003081 -591.3125 1015.875 C-598.71000445 1021.02822144 -606.12124765 1026.16012181 -613.5625 1031.25 C-614.71262573 1032.03673096 -614.71262573 1032.03673096 -615.88598633 1032.83935547 C-619.90736634 1035.58511466 -623.94253607 1038.30784384 -628 1041 C-628.66 1040.67 -629.32 1040.34 -630 1040 C-619.83914001 1022.76109031 -609.55271154 1005.60458749 -599.14111328 988.51611328 C-595.94140634 983.2633446 -592.7511207 978.0048557 -589.56011963 972.74679565 C-587.79687684 969.84143973 -586.03323823 966.93632415 -584.26953125 964.03125 C-583.91993347 963.45539658 -583.57033569 962.87954315 -583.21014404 962.28623962 C-581.03584887 958.70509346 -578.86040237 955.12464916 -576.68417358 951.54467773 C-566.80496588 935.29477195 -566.80496588 935.29477195 -557 919 C-550.12269626 907.51013114 -543.16132155 896.0713634 -536.20556641 884.62890625 C-534.04607061 881.07620657 -531.88800953 877.52263723 -529.73046875 873.96875 C-529.38098679 873.39308792 -529.03150482 872.81742584 -528.6714325 872.22431946 C-527.26119677 869.90131861 -525.85102524 867.57827881 -524.44088745 865.25521851 C-520.88266046 859.39345867 -517.32401155 853.53196038 -513.76116943 847.67300415 C-506.64293671 835.96722932 -499.53910482 824.25362463 -492.5 812.5 C-485.10436798 800.15106006 -477.63604671 787.84697069 -470.15722656 775.54833984 C-466.60166646 769.70080729 -463.05117155 763.85019827 -459.5 758 C-458.0898959 755.67705167 -456.67974335 753.35413276 -455.26953125 751.03125 C-454.74512703 750.16745476 -454.74512703 750.16745476 -454.21012878 749.28620911 C-452.0358346 745.7050756 -449.86039648 742.12463948 -447.68417358 738.54467773 C-437.80496588 722.29477195 -437.80496588 722.29477195 -428 706 C-421.12269626 694.51013114 -414.16132155 683.0713634 -407.20556641 671.62890625 C-405.04607062 668.07620657 -402.88800872 664.52263771 -400.73046875 660.96875 C-400.38085083 660.39286133 -400.03123291 659.81697266 -399.67102051 659.22363281 C-398.61398809 657.48243741 -397.55698761 655.74122261 -396.5 654 C-392.56278235 647.51404659 -388.6254289 641.02817869 -384.68417358 634.54467773 C-374.80496588 618.29477195 -374.80496588 618.29477195 -365 602 C-358.12269626 590.51013114 -351.16132155 579.0713634 -344.20556641 567.62890625 C-342.04607062 564.07620657 -339.88800872 560.52263771 -337.73046875 556.96875 C-337.38085083 556.39286133 -337.03123291 555.81697266 -336.67102051 555.22363281 C-335.61398809 553.48243741 -334.55698761 551.74122261 -333.5 550 C-329.56278235 543.51404659 -325.6254289 537.02817869 -321.68417358 530.54467773 C-311.80496588 514.29477195 -311.80496588 514.29477195 -302 498 C-295.12269626 486.51013114 -288.16132155 475.0713634 -281.20556641 463.62890625 C-279.04607062 460.07620657 -276.88800872 456.52263771 -274.73046875 452.96875 C-274.38085083 452.39286133 -274.03123291 451.81697266 -273.67102051 451.22363281 C-272.61398809 449.48243741 -271.55698761 447.74122261 -270.5 446 C-266.56278235 439.51404659 -262.6254289 433.02817869 -258.68417358 426.54467773 C-248.80496588 410.29477195 -248.80496588 410.29477195 -239 394 C-232.12269626 382.51013114 -225.16132155 371.0713634 -218.20556641 359.62890625 C-216.04607061 356.07620657 -213.88800953 352.52263723 -211.73046875 348.96875 C-211.38098679 348.39308792 -211.03150482 347.81742584 -210.6714325 347.22431946 C-209.26119677 344.90131861 -207.85102524 342.57827881 -206.44088745 340.25521851 C-202.88266046 334.39345867 -199.32401155 328.53196038 -195.76116943 322.67300415 C-188.64293671 310.96722932 -181.53910482 299.25362463 -174.5 287.5 C-167.10436798 275.15106006 -159.63604671 262.84697069 -152.15722656 250.54833984 C-148.60166646 244.70080729 -145.05117155 238.85019827 -141.5 233 C-140.0898959 230.67705167 -138.67974335 228.35413276 -137.26953125 226.03125 C-136.91992844 225.45538651 -136.57032562 224.87952301 -136.21012878 224.28620911 C-134.0358346 220.7050756 -131.86039648 217.12463948 -129.68417358 213.54467773 C-119.80496588 197.29477195 -119.80496588 197.29477195 -110 181 C-103.12269626 169.51013114 -96.16132155 158.0713634 -89.20556641 146.62890625 C-87.04607062 143.07620657 -84.88800872 139.52263771 -82.73046875 135.96875 C-82.38085083 135.39286133 -82.03123291 134.81697266 -81.67102051 134.22363281 C-80.61398809 132.48243741 -79.55698761 130.74122261 -78.5 129 C-74.56278235 122.51404659 -70.6254289 116.02817869 -66.68417358 109.54467773 C-56.80496588 93.29477195 -56.80496588 93.29477195 -47 77 C-40.50389587 66.14699897 -33.9322234 55.34004903 -27.36114502 44.53236389 C-24.69600211 40.14793089 -22.03652161 35.7600927 -19.37890625 31.37109375 C-18.24296219 29.49620006 -17.10690327 27.62137602 -15.97079468 25.74658203 C-15.2539249 24.56307908 -14.53745752 23.37933226 -13.82144165 22.1953125 C-9.30922043 14.7344406 -4.71480683 7.33465375 0 0 Z " fill="#52B9FE" transform="translate(1777,1185)"/>
<path d="M0 0 C-1.50786346 4.12757121 -3.53828357 7.81779374 -5.7890625 11.57421875 C-6.1642099 12.20632767 -6.5393573 12.83843658 -6.9258728 13.48970032 C-8.15510087 15.55793157 -9.3898394 17.62280707 -10.625 19.6875 C-11.48967616 21.13861657 -12.35425837 22.58978912 -13.21875 24.04101562 C-19.03476166 33.78828792 -24.95245026 43.4684591 -30.93139648 53.11669922 C-36.71460501 62.47368752 -42.32356233 71.92923595 -47.92041016 81.3984375 C-53.18183282 90.29689467 -58.51828121 99.13649883 -64.00195312 107.90039062 C-69.46169949 116.66490151 -74.69597826 125.56176945 -79.95117188 134.44970703 C-84.56796977 142.25540862 -89.20469238 150.03766913 -94.07495117 157.6887207 C-98.70997036 165.02857287 -103.08162016 172.52870682 -107.5 180 C-117.67534931 197.20608476 -117.67534931 197.20608476 -122 204 C-126.95416579 211.7854374 -131.61637671 219.74509983 -136.3125 227.6875 C-142.10834064 237.48965117 -147.95968803 247.24407026 -154.00048828 256.89794922 C-159.46059635 265.66335735 -164.69549268 274.56094821 -169.95117188 283.44970703 C-174.56796977 291.25540862 -179.20469238 299.03766913 -184.07495117 306.6887207 C-188.70997036 314.02857287 -193.08162016 321.52870682 -197.5 329 C-202.59943422 337.6229273 -207.69405761 346.23575596 -213.07421875 354.6875 C-217.70938248 362.02782754 -222.08137563 369.52829332 -226.5 377 C-231.59943422 385.6229273 -236.69405761 394.23575596 -242.07421875 402.6875 C-246.70938248 410.02782754 -251.08137563 417.52829332 -255.5 425 C-260.59943422 433.6229273 -265.69405761 442.23575596 -271.07421875 450.6875 C-275.70938248 458.02782754 -280.08137563 465.52829332 -284.5 473 C-289.59943422 481.6229273 -294.69405761 490.23575596 -300.07421875 498.6875 C-304.70938248 506.02782754 -309.08137563 513.52829332 -313.5 521 C-323.67534931 538.20608476 -323.67534931 538.20608476 -328 545 C-332.95416579 552.7854374 -337.61637671 560.74509983 -342.3125 568.6875 C-348.10834064 578.48965117 -353.95968803 588.24407026 -360.00048828 597.89794922 C-365.46059635 606.66335735 -370.69549268 615.56094821 -375.95117188 624.44970703 C-380.56796977 632.25540862 -385.20469238 640.03766913 -390.07495117 647.6887207 C-394.70997036 655.02857287 -399.08162016 662.52870682 -403.5 670 C-408.59943422 678.6229273 -413.69405761 687.23575596 -419.07421875 695.6875 C-423.70938248 703.02782754 -428.08137563 710.52829332 -432.5 718 C-437.59943422 726.6229273 -442.69405761 735.23575596 -448.07421875 743.6875 C-452.70938248 751.02782754 -457.08137563 758.52829332 -461.5 766 C-466.59943422 774.6229273 -471.69405761 783.23575596 -477.07421875 791.6875 C-481.70938248 799.02782754 -486.08137563 806.52829332 -490.5 814 C-495.59943422 822.6229273 -500.69405761 831.23575596 -506.07421875 839.6875 C-510.70938248 847.02782754 -515.08137563 854.52829332 -519.5 862 C-524.59943422 870.6229273 -529.69405761 879.23575596 -535.07421875 887.6875 C-539.70938248 895.02782754 -544.08137563 902.52829332 -548.5 910 C-558.67534931 927.20608476 -558.67534931 927.20608476 -563 934 C-567.95416579 941.7854374 -572.61637671 949.74509983 -577.3125 957.6875 C-583.10834064 967.48965117 -588.95968803 977.24407026 -595.00048828 986.89794922 C-600.45398897 995.65275016 -605.68296627 1004.53932822 -610.93203735 1013.41748047 C-616.816564 1023.36725776 -622.76939979 1033.26168399 -629 1043 C-632.90560333 1041.69813222 -633.24650315 1040.31354055 -635.23046875 1036.76171875 C-635.86017578 1035.64611572 -636.48988281 1034.5305127 -637.13867188 1033.38110352 C-637.82173054 1032.14996667 -638.50466989 1030.91876362 -639.1875 1029.6875 C-639.90204632 1028.41475025 -640.61755658 1027.14254124 -641.33398438 1025.87084961 C-642.82310459 1023.22612493 -644.30802341 1020.57910248 -645.79052734 1017.93066406 C-647.85447055 1014.25042601 -649.94622588 1010.58682352 -652.05078125 1006.9296875 C-666.28580625 982.18618502 -680.00177906 957.17318345 -693.40771484 931.97167969 C-694.76931907 929.43051952 -696.15106731 926.90309192 -697.55078125 924.3828125 C-748.33693874 832.37683471 -757.85708698 716.24763446 -728.9375 592.65234375 C-715.42114054 546.94631083 -695.51234347 505.82058936 -663.25390625 470.4765625 C-661.7257804 468.79747795 -660.21314142 467.10419177 -658.71484375 465.3984375 C-654.09849488 460.15654564 -649.35309537 455.47478093 -644 451 C-643.07832031 450.19046875 -642.15664063 449.3809375 -641.20703125 448.546875 C-632.59476483 441.01918721 -623.42610748 434.46423426 -614 428 C-612.68741669 427.09647519 -611.37491434 426.19283274 -610.0625 425.2890625 C-608.11687175 423.95066073 -606.17051495 422.61336221 -604.22241211 421.27856445 C-596.29514064 415.84429116 -588.43260732 410.31768 -580.56445312 404.79833984 C-576.37826879 401.86275018 -572.18902323 398.93153649 -568 396 C-563.03435462 392.52458046 -558.06904574 389.04868566 -553.10546875 385.5703125 C-543.27499493 378.68271938 -533.42957704 371.81705622 -523.57373047 364.96582031 C-514.85313321 358.90199382 -506.15003556 352.81341689 -497.45166016 346.71777344 C-493.30213572 343.8103791 -489.15097694 340.90531999 -485 338 C-483.33332569 336.83334425 -481.66665902 335.66667759 -480 334.5 C-403.33333333 280.83333333 -326.66666667 227.16666667 -250 173.5 C-249.1752417 172.92266113 -248.3504834 172.34532227 -247.50073242 171.75048828 C-245.83165493 170.58215033 -244.16254678 169.41385616 -242.4934082 168.24560547 C-238.36337662 165.35486511 -234.23385554 162.46340146 -230.10546875 159.5703125 C-220.27499493 152.68271938 -210.42957704 145.81705622 -200.57373047 138.96582031 C-191.85313321 132.90199382 -183.15003556 126.81341689 -174.45166016 120.71777344 C-170.30213572 117.8103791 -166.15097694 114.90531999 -162 112 C-160.33332569 110.83334425 -158.66665902 109.66667759 -157 108.5 C-16.6484375 10.25390625 -16.6484375 10.25390625 -14.37011719 8.66455078 C-12.6608903 7.46414814 -10.95932259 6.25281367 -9.26269531 5.03466797 C-7.91449707 4.07197998 -7.91449707 4.07197998 -6.5390625 3.08984375 C-5.30857178 2.20413696 -5.30857178 2.20413696 -4.05322266 1.30053711 C-2 0 -2 0 0 0 Z " fill="#5162FE" transform="translate(1076,0)"/>
<path d="M0 0 C5.07279647 1.62130554 8.90690698 4.67384743 13.125 7.8125 C19.46976493 12.46571663 25.86561757 17.01736461 32.375 21.4375 C38.86578813 25.85065105 45.32519371 30.3037637 51.75 34.8125 C58.92706254 39.84845589 66.11376271 44.87006512 73.3125 49.875 C74.2725293 50.54249268 75.23255859 51.20998535 76.22167969 51.89770508 C78.17328577 53.25447232 80.1249461 54.61116153 82.07666016 55.96777344 C86.88530162 59.31061055 91.69258892 62.65539381 96.5 66 C98.41666003 67.33334287 100.3333267 68.6666762 102.25 70 C106.08333333 72.66666667 109.91666667 75.33333333 113.75 78 C114.6989917 78.66016113 115.6479834 79.32032227 116.62573242 80.00048828 C118.53998423 81.33215585 120.45420954 82.6638615 122.3684082 83.99560547 C127.19680432 87.35473975 132.02567707 90.71318503 136.85546875 94.0703125 C146.73134783 100.93589689 156.5983601 107.81368642 166.44873047 114.71582031 C175.64259305 121.15534202 184.85979198 127.56124425 194.07666016 133.96777344 C199.8414414 137.97529299 205.60438963 141.98544798 211.36767578 145.99511719 C216.19632948 149.35439489 221.02543618 152.71301759 225.85546875 156.0703125 C235.73134783 162.93589689 245.5983601 169.81368642 255.44873047 176.71582031 C264.64259305 183.15534202 273.85979198 189.56124425 283.07666016 195.96777344 C287.88530162 199.31061055 292.69258892 202.65539381 297.5 206 C299.41666003 207.33334287 301.3333267 208.6666762 303.25 210 C307.08333333 212.66666667 310.91666667 215.33333333 314.75 218 C315.6989917 218.66016113 316.6479834 219.32032227 317.62573242 220.00048828 C319.53998423 221.33215585 321.45420954 222.6638615 323.3684082 223.99560547 C328.19680432 227.35473975 333.02567707 230.71318503 337.85546875 234.0703125 C347.73134783 240.93589689 357.5983601 247.81368642 367.44873047 254.71582031 C376.64259305 261.15534202 385.85979198 267.56124425 395.07666016 273.96777344 C399.88530162 277.31061055 404.69258892 280.65539381 409.5 284 C411.41666003 285.33334287 413.3333267 286.6666762 415.25 288 C419.08333333 290.66666667 422.91666667 293.33333333 426.75 296 C427.6989917 296.66016113 428.6479834 297.32032227 429.62573242 298.00048828 C431.53998423 299.33215585 433.45420954 300.6638615 435.3684082 301.99560547 C440.19680432 305.35473975 445.02567707 308.71318503 449.85546875 312.0703125 C459.73134783 318.93589689 469.5983601 325.81368642 479.44873047 332.71582031 C489.61463826 339.83617732 499.80845249 346.91641693 510 354 C515.80621104 358.03557735 521.61186617 362.07193316 527.4140625 366.11328125 C531.07042537 368.65979014 534.73223495 371.19815018 538.3984375 373.73046875 C551.80082582 383.01068324 564.54671618 392.80302927 576.9296875 403.3984375 C579.67734045 405.74257701 582.48800228 407.99883316 585.3125 410.25 C591.52328374 415.3019203 597.28720845 420.80802493 603.09375 426.3125 C606.33316578 429.38273932 609.62191757 432.38733232 612.9375 435.375 C618.0223524 440.02102267 622.93361835 444.82596969 627.8125 449.6875 C628.51818115 450.38858887 629.2238623 451.08967773 629.95092773 451.81201172 C633.90518681 455.77793803 637.67478444 459.84571059 641.33178711 464.08666992 C643.93323494 467.07035888 646.65918232 469.93333424 649.375 472.8125 C654.04558016 477.80410746 658.49617477 482.90243787 662.76953125 488.2421875 C664.77943868 490.72729196 666.84143207 493.15798075 668.9284668 495.57836914 C675.09967246 502.75325299 680.79822334 510.22501538 686.40673828 517.84472656 C688.02856082 520.03863545 689.66687568 522.21938631 691.30859375 524.3984375 C744.24604008 594.97159864 783.38026049 676.74383749 833 1005 C832.67 1005 832.34 1005 832 1005 C831.96036133 1003.92782227 831.92072266 1002.85564453 831.87988281 1001.75097656 C830.57773412 967.37746971 827.86377923 933.20776796 823.95141602 899.03344727 C823.3556242 893.76423864 822.90672417 888.52601271 822.62109375 883.23046875 C821.93666648 872.45605949 820.30198599 861.80268781 818.75 851.125 C818.512742 849.48195892 818.512742 849.48195892 818.27069092 847.8057251 C815.99185401 832.08028504 813.52016387 816.50072158 810 801 C809.67372549 799.53027779 809.34826564 798.06037459 809.0234375 796.59033203 C804.66101897 776.88095735 800.25099945 757.2112284 794 738 C793.76732422 737.28455017 793.53464844 736.56910034 793.29492188 735.83197021 C785.79105932 712.81976702 777.80467575 690.14362486 768 668 C767.52385254 666.92363281 767.04770508 665.84726562 766.55712891 664.73828125 C735.54880202 595.19238205 694.62340773 531.42053289 643.6015625 474.8828125 C642.15309822 473.27775749 640.70996403 471.66768522 639.28833008 470.03881836 C632.39629165 462.22234871 625.0382464 454.88666569 617.66137695 447.53100586 C615.43520138 445.31020693 613.21444368 443.08409034 610.99414062 440.85742188 C609.55761229 439.42155416 608.12077389 437.98599657 606.68359375 436.55078125 C606.03128281 435.89644608 605.37897186 435.2421109 604.70689392 434.56794739 C600.84043843 430.72080582 596.86352536 427.05529223 592.73202515 423.49391174 C590.51208134 421.57915887 588.35113426 419.60296337 586.1875 417.625 C580.93819023 412.89423907 575.50376055 408.43002948 570 404 C568.86686303 403.07461592 567.73406551 402.14881607 566.6015625 401.22265625 C552.23626372 389.53236909 537.05409294 378.99294522 521.87109375 368.40234375 C517.40242926 365.28456858 512.94850309 362.14645096 508.5 359 C502.34577158 354.64878238 496.1768319 350.31906719 490 346 C483.13181445 341.197513 476.27674835 336.377134 469.43359375 331.5390625 C463.96693072 327.67663516 458.48545443 323.83568189 453 320 C444.67594532 314.17881568 436.37081622 308.33145779 428.07666016 302.46777344 C424.55232487 299.97679016 421.02607528 297.48851935 417.5 295 C413.28423746 292.02473548 409.06881222 289.04900208 404.85546875 286.0703125 C396.40026785 280.09445622 387.92731143 274.14464861 379.44213867 268.21142578 C373.42742901 264.00396642 367.42720006 259.77650817 361.43359375 255.5390625 C355.96693091 251.6766353 350.48547834 247.83564745 345 244 C338.13181445 239.197513 331.27674835 234.377134 324.43359375 229.5390625 C318.96693072 225.67663516 313.48545443 221.83568189 308 218 C299.67594532 212.17881568 291.37081622 206.33145779 283.07666016 200.46777344 C279.55232487 197.97679016 276.02607528 195.48851935 272.5 193 C268.28423746 190.02473548 264.06881222 187.04900208 259.85546875 184.0703125 C251.40026785 178.09445622 242.92731143 172.14464861 234.44213867 166.21142578 C228.42742901 162.00396642 222.42720006 157.77650817 216.43359375 153.5390625 C210.96693072 149.67663516 205.48545443 145.83568189 200 142 C190.29093696 135.21025056 180.6103131 128.38088394 170.93652344 121.54101562 C161.78837414 115.07384826 152.62345726 108.63142578 143.44213867 102.21142578 C137.42742901 98.00396642 131.42720006 93.77650817 125.43359375 89.5390625 C119.96693072 85.67663516 114.48545443 81.83568189 109 78 C99.29093696 71.21025056 89.6103131 64.38088394 79.93652344 57.54101562 C70.78837414 51.07384826 61.62345726 44.63142578 52.44213867 38.21142578 C46.43392121 34.0085079 40.43940949 29.78667521 34.45336914 25.55224609 C30.56946798 22.8069583 26.67768204 20.07345824 22.77734375 17.3515625 C21.88917969 16.73152344 21.00101563 16.11148438 20.0859375 15.47265625 C18.37455091 14.27872431 16.6623662 13.0859352 14.94921875 11.89453125 C3.50717499 3.91127523 3.50717499 3.91127523 0 1 C0 0.67 0 0.34 0 0 Z " fill="#9DA6D5" transform="translate(1278,89)"/>
<path d="M0 0 C0.66 0 1.32 0 2 0 C2.26514404 0.7120459 2.53028809 1.4240918 2.8034668 2.15771484 C11.70799249 25.88667251 22.6420746 48.19734739 34.91015625 70.3828125 C37.09656238 74.33983535 39.24516024 78.31484709 41.37109375 82.3046875 C47.58359555 93.96184401 53.95186751 105.48639111 60.66381836 116.86376953 C65.85269083 125.67983617 70.82976627 134.6058835 75.76342773 143.56616211 C78.7457733 148.97566226 81.75088805 154.37149996 84.81640625 159.734375 C85.3791626 160.72147461 85.94191895 161.70857422 86.52172852 162.72558594 C87.79872391 165.1102897 87.79872391 165.1102897 90 166 C90.27062256 165.27756104 90.54124512 164.55512207 90.82006836 163.81079102 C91.98341614 161.03950549 93.32477774 158.59741592 94.87890625 156.02734375 C95.46140137 155.06014404 96.04389648 154.09294434 96.64404297 153.09643555 C97.5936792 151.53276245 97.5936792 151.53276245 98.5625 149.9375 C99.22652832 148.83768799 99.89055664 147.73787598 100.57470703 146.60473633 C102.35230409 143.66134624 104.13476628 140.72093525 105.91888428 137.78149414 C106.97869977 136.03509915 108.03760567 134.28815626 109.09619141 132.54101562 C114.41616746 123.76146681 119.74896419 114.98972995 125.08325195 106.21887207 C127.59797113 102.0839026 130.11201475 97.9485235 132.625 93.8125 C132.97866638 93.23043793 133.33233276 92.64837585 133.69671631 92.04867554 C138.65771905 83.88165489 143.59022528 75.69794259 148.5 67.5 C155.93840794 55.08249783 163.42996231 42.69810682 170.96630859 30.33984375 C172.94857983 27.08444513 174.9217972 23.82368385 176.89453125 20.5625 C178.0750164 18.62469261 179.2559773 16.68717494 180.4375 14.75 C180.9752002 13.85635742 181.51290039 12.96271484 182.06689453 12.04199219 C182.55915527 11.23922852 183.05141602 10.43646484 183.55859375 9.609375 C183.98454834 8.90780273 184.41050293 8.20623047 184.84936523 7.48339844 C185.22907471 6.99387695 185.60878418 6.50435547 186 6 C186.66 6 187.32 6 188 6 C186.47332538 10.19330569 184.3909683 13.93576454 182.10546875 17.75 C181.53044365 18.71867004 181.53044365 18.71867004 180.94380188 19.70690918 C179.69549064 21.80688903 178.44171126 23.90353947 177.1875 26 C176.31500123 27.46413137 175.44260618 28.92832456 174.5703125 30.39257812 C169.4636184 38.9511082 164.28015501 47.4566573 158.99487305 55.90625 C154.03788843 63.86353523 149.27060615 71.930253 144.5 80 C138.76433428 89.70219921 132.97021407 99.354606 126.9921875 108.91015625 C121.61079799 117.55012583 116.4495052 126.31873982 111.27011108 135.08056641 C104.33034628 146.81578763 97.25185551 158.45420432 90 170 C86.09439667 168.69813222 85.75349685 167.31354055 83.76953125 163.76171875 C83.13982422 162.64611572 82.51011719 161.5305127 81.86132812 160.38110352 C81.17826946 159.14996667 80.49533011 157.91876362 79.8125 156.6875 C79.09795368 155.41475025 78.38244342 154.14254124 77.66601562 152.87084961 C76.17689541 150.22612493 74.69197659 147.57910248 73.20947266 144.93066406 C71.14552945 141.25042601 69.05377412 137.58682352 66.94921875 133.9296875 C52.71419375 109.18618502 38.99822094 84.17318345 25.59228516 58.97167969 C24.23068093 56.43051952 22.84893269 53.90309192 21.44921875 51.3828125 C0 12.49625911 0 12.49625911 0 0 Z " fill="#6170BB" transform="translate(357,873)"/>
<path d="M0 0 C0.33 0.66 0.66 1.32 1 2 C-0.12462783 4.23556889 -1.30257582 6.32462665 -2.6015625 8.45703125 C-2.98915741 9.10705612 -3.37675232 9.75708099 -3.77609253 10.42680359 C-5.05118105 12.56020448 -6.3378775 14.68634148 -7.625 16.8125 C-8.51161846 18.29003424 -9.39768339 19.76790076 -10.28320312 21.24609375 C-15.44598789 29.84754155 -20.68506412 38.39994105 -26.00439453 46.90551758 C-30.96218738 54.86268965 -35.7292281 62.92997263 -40.5 71 C-46.23566572 80.70219921 -52.02978593 90.354606 -58.0078125 99.91015625 C-62.96338449 107.86646404 -67.7301935 115.93160566 -72.5 124 C-78.23348393 133.69850859 -84.02465719 143.34774861 -90.0012207 152.89916992 C-95.46114789 161.66412945 -100.69573547 170.56135882 -105.95117188 179.44970703 C-110.56796977 187.25540862 -115.20469238 195.03766913 -120.07495117 202.6887207 C-124.70997036 210.02857287 -129.08162016 217.52870682 -133.5 225 C-138.59943422 233.6229273 -143.69405761 242.23575596 -149.07421875 250.6875 C-153.70938248 258.02782754 -158.08137563 265.52829332 -162.5 273 C-167.59943422 281.6229273 -172.69405761 290.23575596 -178.07421875 298.6875 C-182.70938642 306.02783379 -187.08124425 313.52836429 -191.5 321 C-202.09142016 338.90706519 -202.09142016 338.90706519 -207.12915039 346.79516602 C-210.01040364 351.33673912 -212.75830978 355.95091697 -215.4921875 360.58203125 C-216.31232371 361.96669034 -217.13255578 363.35129265 -217.95288086 364.73583984 C-219.19225135 366.82808792 -220.42839967 368.92191841 -221.65481567 371.02178955 C-222.80250118 372.98665443 -223.96077211 374.94492233 -225.12109375 376.90234375 C-225.46755951 377.50254837 -225.81402527 378.10275299 -226.17098999 378.72114563 C-228.65907234 382.88635745 -228.65907234 382.88635745 -232 384 C-230.55730142 380.067948 -228.69598102 376.65738725 -226.5078125 373.08984375 C-226.1661203 372.53011368 -225.8244281 371.97038361 -225.47238159 371.39369202 C-224.359969 369.5728684 -223.24243914 367.75524224 -222.125 365.9375 C-220.95437609 364.02356431 -219.78512865 362.10879206 -218.61590576 360.19400024 C-217.83579179 358.91669021 -217.05523374 357.63965129 -216.27423096 356.36288452 C-213.15319893 351.25951691 -210.06786146 346.1355101 -207 341 C-200.12378119 329.50949212 -193.16131556 318.07135355 -186.20556641 306.62890625 C-182.98740655 301.33454283 -179.77252507 296.03818925 -176.5574646 290.74194336 C-174.78845055 287.82787675 -173.01921376 284.91394537 -171.25 282 C-170.5416656 280.83333398 -169.83333227 279.66666731 -169.125 278.5 C-162.04166667 266.83333333 -154.95833333 255.16666667 -147.875 243.5 C-147.52440018 242.92254028 -147.17380035 242.34508057 -146.81257629 241.75012207 C-146.10399289 240.58304592 -145.39540525 239.41597236 -144.68681335 238.24890137 C-142.91977124 235.33852084 -141.15280216 232.42809603 -139.38598633 229.51757812 C-136.15332415 224.19250205 -132.92004793 218.86780267 -129.68417358 213.54467773 C-119.80496588 197.29477195 -119.80496588 197.29477195 -110 181 C-103.12269626 169.51013114 -96.16132155 158.0713634 -89.20556641 146.62890625 C-87.04607062 143.07620657 -84.88800872 139.52263771 -82.73046875 135.96875 C-82.38085083 135.39286133 -82.03123291 134.81697266 -81.67102051 134.22363281 C-80.61398809 132.48243741 -79.55698761 130.74122261 -78.5 129 C-74.56278235 122.51404659 -70.6254289 116.02817869 -66.68417358 109.54467773 C-56.80496588 93.29477195 -56.80496588 93.29477195 -47 77 C-40.50389587 66.14699897 -33.9322234 55.34004903 -27.36114502 44.53236389 C-24.69600211 40.14793089 -22.03652161 35.7600927 -19.37890625 31.37109375 C-18.24296219 29.49620006 -17.10690327 27.62137602 -15.97079468 25.74658203 C-15.2539249 24.56307908 -14.53745752 23.37933226 -13.82144165 22.1953125 C-9.30922043 14.7344406 -4.71480683 7.33465375 0 0 Z " fill="#959ED6" transform="translate(777,493)"/>
<path d="M0 0 C0.66 0 1.32 0 2 0 C0.47332538 4.19330569 -1.6090317 7.93576454 -3.89453125 11.75 C-4.46955635 12.71867004 -4.46955635 12.71867004 -5.05619812 13.70690918 C-6.30450936 15.80688903 -7.55828874 17.90353947 -8.8125 20 C-9.68499877 21.46413137 -10.55739382 22.92832456 -11.4296875 24.39257812 C-16.52895261 32.93865765 -21.70197966 41.43379565 -26.9831543 49.86889648 C-33.04199714 59.58859032 -38.83401842 69.46928243 -44.64257812 79.33984375 C-45.04117035 80.0152269 -45.43976257 80.69061005 -45.85043335 81.38645935 C-46.60068844 82.65777823 -47.34903901 83.93022373 -48.09512329 85.20399475 C-51.78204589 91.44545541 -51.78204589 91.44545541 -54 94 C-54.66 94 -55.32 94 -56 94 C-54.55730142 90.067948 -52.69598102 86.65738725 -50.5078125 83.08984375 C-50.1661203 82.53011368 -49.8244281 81.97038361 -49.47238159 81.39369202 C-48.359969 79.5728684 -47.24243914 77.75524224 -46.125 75.9375 C-44.95437609 74.02356431 -43.78512865 72.10879206 -42.61590576 70.19400024 C-41.83579179 68.91669021 -41.05523374 67.63965129 -40.27423096 66.36288452 C-37.153199 61.25951703 -34.06784576 56.1355195 -31 51 C-26.11425688 42.83537277 -21.18759304 34.69583095 -16.25 26.5625 C-15.89728027 25.98121338 -15.54456055 25.39992676 -15.18115234 24.80102539 C-13.47531888 21.99026801 -11.76658771 19.18136534 -10.05273438 16.37548828 C-8.61453361 14.01053065 -7.18914344 11.64063658 -5.77539062 9.26123047 C-5.05343366 8.05823928 -4.33142999 6.85527611 -3.609375 5.65234375 C-2.64209473 4.02607056 -2.64209473 4.02607056 -1.65527344 2.36694336 C-1.1090332 1.58585205 -0.56279297 0.80476074 0 0 Z " fill="#7281C5" transform="translate(601,783)"/>
<path d="M0 0 C0.66 0 1.32 0 2 0 C0.4289911 4.34873478 -1.77572793 8.21920474 -4.140625 12.171875 C-4.54528992 12.85372864 -4.94995483 13.53558228 -5.36688232 14.23809814 C-6.22252315 15.67798476 -7.07992131 17.11682836 -7.93896484 18.5546875 C-9.23597147 20.72650939 -10.526619 22.90200976 -11.81640625 25.078125 C-22.38235547 42.86014307 -22.38235547 42.86014307 -25 46 C-25.66 46 -26.32 46 -27 46 C-25.48332485 41.82608652 -23.407718 38.11866877 -21.11328125 34.3359375 C-20.73318405 33.7032193 -20.35308685 33.0705011 -19.96147156 32.41860962 C-19.15711512 31.08125383 -18.35099171 29.74495938 -17.54321289 28.40966797 C-16.33024662 26.40433949 -15.1226411 24.3958675 -13.91601562 22.38671875 C-11.98818244 19.18190734 -10.04776535 15.98505521 -8.09674072 12.79431152 C-7.03698069 11.06050189 -5.98202501 9.3237585 -4.92724609 7.58691406 C-4.30543457 6.58112305 -3.68362305 5.57533203 -3.04296875 4.5390625 C-2.50051514 3.65686035 -1.95806152 2.7746582 -1.39916992 1.86572266 C-0.93744385 1.25003418 -0.47571777 0.6343457 0 0 Z " fill="#6978BF" transform="translate(543,879)"/>
<path d="M0 0 C1 3 1 3 -0.47192383 6.02416992 C-1.20633511 7.26594807 -1.95226331 8.50095736 -2.70703125 9.73046875 C-3.10359924 10.39419998 -3.50016724 11.05793121 -3.90875244 11.74177551 C-5.19988529 13.89662337 -6.50561987 16.04217245 -7.8125 18.1875 C-8.69459335 19.64999015 -9.57602337 21.11288059 -10.45678711 22.57617188 C-12.58526416 26.1060723 -14.72635071 29.62810969 -16.87231445 33.1473999 C-18.39688362 35.65201388 -19.90866798 38.16429102 -21.421875 40.67578125 C-22.30056021 42.1181165 -23.1805801 43.55964033 -24.0625 45 C-24.64124878 45.95749146 -24.64124878 45.95749146 -25.23168945 46.93432617 C-26.09875419 48.32584954 -27.04021606 49.67073203 -28 51 C-28.66 51 -29.32 51 -30 51 C-28.54959641 47.04398219 -26.67030228 43.61071077 -24.47265625 40.01953125 C-24.12745941 39.45306381 -23.78226257 38.88659637 -23.42660522 38.30296326 C-22.30881849 36.47059289 -21.18573239 34.64153624 -20.0625 32.8125 C-19.29335713 31.55392112 -18.52455995 30.29513092 -17.75610352 29.03613281 C-15.85815556 25.92835103 -13.95608338 22.82311774 -12.05285645 19.71856689 C-10.50884605 17.19829439 -8.96915878 14.67539078 -7.4296875 12.15234375 C-4.95650177 8.09948781 -2.47967609 4.04888796 0 0 Z " fill="#8490CD" transform="translate(632,732)"/>
<path d="M0 0 C0.66 0 1.32 0 2 0 C0.43317586 4.34179562 -1.77159616 8.19637323 -4.140625 12.13671875 C-4.54528992 12.81620071 -4.94995483 13.49568268 -5.36688232 14.195755 C-6.65789339 16.36169678 -7.95386564 18.52462104 -9.25 20.6875 C-10.10579594 22.12154958 -10.96126774 23.55579266 -11.81640625 24.99023438 C-16.19748908 32.33486027 -20.59561022 39.6693301 -25 47 C-25.66 46.67 -26.32 46.34 -27 46 C-25.53030414 41.97806539 -23.59949494 38.49370255 -21.3671875 34.84375 C-21.01165802 34.26016724 -20.65612854 33.67658447 -20.28982544 33.07531738 C-19.15510078 31.21468241 -18.01513802 29.35732161 -16.875 27.5 C-16.13246851 26.28406416 -15.39027825 25.06791988 -14.6484375 23.8515625 C-13.17522639 21.43700943 -11.6963083 19.02608282 -10.21386719 16.6171875 C-8.70039346 14.1543819 -7.20921851 11.67969408 -5.73144531 9.1953125 C-5.36802032 8.58981567 -5.00459534 7.98431885 -4.63015747 7.36047363 C-3.62666717 5.68769121 -2.62978424 4.01095024 -1.63330078 2.33398438 C-1.09431152 1.56376953 -0.55532227 0.79355469 0 0 Z " fill="#7A88C7" transform="translate(601,783)"/>
<path d="M0 0 C0.66 0 1.32 0 2 0 C1.34344577 4.08073706 -0.79538979 7.29987559 -2.9375 10.75 C-3.29779297 11.35199219 -3.65808594 11.95398438 -4.02929688 12.57421875 C-4.96079133 14.08725394 -5.97461836 15.54894869 -7 17 C-7.66 17 -8.32 17 -9 17 C-7.5143761 12.99624358 -5.63136615 9.38578153 -3.5 5.6875 C-2.58734375 4.08455078 -2.58734375 4.08455078 -1.65625 2.44921875 C-1.1096875 1.64097656 -0.563125 0.83273437 0 0 Z " fill="#6E7BC0" transform="translate(554,860)"/>
<path d="M0 0 C0.33 0.66 0.66 1.32 1 2 C-0.02981519 4.26913434 -1.1044511 6.39175062 -2.3125 8.5625 C-2.63412109 9.16513672 -2.95574219 9.76777344 -3.28710938 10.38867188 C-5.7351834 14.8675917 -5.7351834 14.8675917 -8 16 C-7.67 12.7 -7.34 9.4 -7 6 C-6.67 6.99 -6.34 7.98 -6 9 C-5.34 9 -4.68 9 -4 9 C-3.71125 8.071875 -3.4225 7.14375 -3.125 6.1875 C-2 3 -2 3 0 0 Z " fill="#6DAEF2" transform="translate(2013,1517)"/>
<path d="M0 0 C1.231394 3.69418201 0.64432764 6.2056261 0 10 C-0.66 9.34 -1.32 8.68 -2 8 C-3.65 10.64 -5.3 13.28 -7 16 C-7.33 15.34 -7.66 14.68 -8 14 C-6.94589776 11.73574127 -5.84861906 9.60685517 -4.625 7.4375 C-4.295 6.83486328 -3.965 6.23222656 -3.625 5.61132812 C-1.17569314 1.17569314 -1.17569314 1.17569314 0 0 Z " fill="#6A7EF1" transform="translate(220,693)"/>
<path d="M0 0 C0.68359375 1.671875 0.68359375 1.671875 1 4 C-0.21484375 6.578125 -0.21484375 6.578125 -1.9375 9.25 C-2.50339844 10.14203125 -3.06929687 11.0340625 -3.65234375 11.953125 C-4.09707031 12.62859375 -4.54179688 13.3040625 -5 14 C-5.66 13.67 -6.32 13.34 -7 13 C-5.35821735 8.22390502 -2.73453298 4.20617096 0 0 Z " fill="#6E8CCD" transform="translate(581,816)"/>
<path d="M0 0 C0.66 0 1.32 0 2 0 C0.74194623 4.50802601 -0.90407165 7.4912812 -4 11 C-5 8 -5 8 -4.07421875 5.95703125 C-3.61660156 5.24933594 -3.15898437 4.54164063 -2.6875 3.8125 C-2.23761719 3.09707031 -1.78773438 2.38164063 -1.32421875 1.64453125 C-0.88722656 1.10183594 -0.45023437 0.55914063 0 0 Z " fill="#5A69C0" transform="translate(460,1016)"/>
<path d="M0 0 C0.66 0 1.32 0 2 0 C1.40072174 3.35595828 0.15377564 5.37801226 -2 8 C-3 5 -3 5 -1.6875 2.3125 C-1.130625 1.549375 -0.57375 0.78625 0 0 Z " fill="#5765C3" transform="translate(487,971)"/>
<path d="M0 0 C0.66 0.66 1.32 1.32 2 2 C0.7260411 4.03833424 -0.61061923 6.03852126 -2 8 C-2.66 8 -3.32 8 -4 8 C-2.87548273 5.0280615 -1.77706209 2.66559313 0 0 Z " fill="#6776C7" transform="translate(549,869)"/>
<path d="M0 0 C3.465 1.98 3.465 1.98 7 4 C7 4.66 7 5.32 7 6 C2.25 4.125 2.25 4.125 0 3 C0 2.01 0 1.02 0 0 Z " fill="#A3AAD8" transform="translate(1418,186)"/>
</svg>
