<?xml version="1.0" encoding="UTF-8"?>
<svg version="1.1" xmlns="http://www.w3.org/2000/svg" width="2000" height="2000">
<path d="M0 0 C2.33403434 0.23228959 4.6690167 0.45079336 7.00469971 0.66583252 C58.75280757 5.46307341 109.91014963 14.53025862 160.28936768 27.22784424 C160.97323547 27.39993408 161.65710327 27.57202393 162.36169434 27.74932861 C181.543655 32.59017271 200.46335105 38.15454304 219.28936768 44.22784424 C220.60021928 44.64831923 221.91109201 45.06872836 223.22198486 45.48907471 C286.83642274 65.93970311 349.81759029 92.56593872 407.42315674 126.54229736 C410.12137579 128.12905242 412.82942277 129.69789702 415.54116821 131.26139832 C429.61601925 139.37875923 443.51383816 147.68966405 457.02911377 156.71905518 C459.28296969 158.22357339 461.54484108 159.71529486 463.80889893 161.20440674 C491.34929219 179.36800886 517.93905457 198.83786654 543.46466064 219.73516846 C545.07160463 221.04970626 546.68215958 222.35982726 548.29327393 223.66925049 C558.35833157 231.85901355 568.25697461 240.19433089 577.81671143 248.97003174 C579.90804706 250.87965575 582.02195632 252.75115676 584.16436768 254.60284424 C592.48165848 261.84418161 600.51715412 269.37469281 608.25811768 277.22784424 C610.14649243 279.08716708 612.0857952 280.82172508 614.10186768 282.54034424 C621.78225547 289.14547774 628.89131498 296.45654021 635.44952393 304.16925049 C637.79433063 306.79284525 640.28587405 309.25752894 642.78936768 311.72784424 C646.4934656 315.38776427 650.04224536 319.11728219 653.42218018 323.07940674 C655.31723683 325.25991126 657.2688886 327.38166955 659.23419189 329.49884033 C663.97318407 334.6067264 668.48193847 339.82789651 672.85186768 345.25909424 C675.71863571 348.75067069 678.68730086 352.1429397 681.66436768 355.54034424 C687.27457453 361.96868936 692.6040485 368.56665635 697.81329346 375.32208252 C699.40808247 377.38111709 701.01749059 379.42813313 702.62921143 381.47393799 C710.24600798 391.16283424 717.59935924 401.00757416 724.74102783 411.05157471 C726.22433548 413.13643821 727.71517418 415.21571944 729.20733643 417.29425049 C747.18707671 442.4409741 763.79063789 468.48883638 779.28936768 495.22784424 C779.82175049 496.14549561 780.3541333 497.06314697 780.90264893 498.00860596 C789.18940558 512.34661041 796.96489778 526.92121546 804.48028564 541.67706299 C805.69143686 544.05425371 806.90564295 546.42951666 808.12579346 548.80206299 C848.43474276 627.24691867 876.95814319 712.12320585 909.60186768 900.16534424 C909.71517929 901.2587764 909.71517929 901.2587764 909.83078003 902.3742981 C910.4023806 907.98601937 910.86713269 913.60302325 911.28936768 919.22784424 C911.37550323 920.36629791 911.46163879 921.50475159 911.55038452 922.67770386 C913.27955617 946.34243481 913.65328662 969.94835276 913.60722351 993.67043686 C913.60178424 996.58505126 913.59941641 999.49965755 913.59735107 1002.41427612 C913.56724216 1029.67956945 913.24192522 1056.80591232 910.51397705 1083.95788574 C910.2868631 1086.25315606 910.07499414 1088.54937536 909.86749268 1090.84649658 C903.38946139 1162.13406141 889.08732053 1233.09153382 866.95611572 1301.17150879 C866.28397645 1303.24447146 865.61880374 1305.31955666 864.9553833 1307.39532471 C850.20105985 1353.47997037 831.73746985 1398.24473027 810.12823486 1441.53546143 C808.3529013 1445.09289128 806.60486802 1448.66333309 804.85968018 1452.23565674 C797.84058685 1466.53959972 790.29420562 1480.45412068 782.28936768 1494.22784424 C781.60580747 1495.4101299 780.92255123 1496.59259135 780.23956299 1497.77520752 C772.35816358 1511.41390225 764.45283638 1525.01797739 755.69659424 1538.11993408 C754.12162421 1540.47911022 752.56086879 1542.8473968 751.00030518 1545.21612549 C732.24935371 1573.60119555 712.32981324 1601.08347703 690.77764893 1627.40753174 C689.47527389 1629.00046288 688.17870736 1630.59813944 686.88311768 1632.19659424 C678.62455521 1642.37018568 670.09592804 1652.31005809 661.28936768 1662.01300049 C659.49333239 1664.00196926 657.72983464 1666.01347618 655.97686768 1668.04034424 C648.70730564 1676.37251047 641.16388477 1684.43457025 633.28936768 1692.19659424 C631.43004484 1694.084969 629.69548683 1696.02427177 627.97686768 1698.04034424 C621.37173417 1705.72073203 614.06067171 1712.82979154 606.34796143 1719.38800049 C603.72436666 1721.7328072 601.25968297 1724.22435062 598.78936768 1726.72784424 C595.12944764 1730.43194216 591.39992972 1733.98072192 587.43780518 1737.36065674 C585.25730065 1739.2557134 583.13554236 1741.20736516 581.01837158 1743.17266846 C575.91048552 1747.91166063 570.68931541 1752.42041503 565.25811768 1756.79034424 C561.76654123 1759.65711227 558.37427221 1762.62577742 554.97686768 1765.60284424 C548.54852255 1771.21305109 541.95055556 1776.54252506 535.19512939 1781.75177002 C533.13609482 1783.34655903 531.08907878 1784.95596715 529.04327393 1786.56768799 C519.35437768 1794.18448455 509.50963776 1801.53783581 499.46563721 1808.67950439 C497.3807737 1810.16281204 495.30149247 1811.65365074 493.22296143 1813.14581299 C468.07623781 1831.12555327 442.02837553 1847.72911446 415.28936768 1863.22784424 C414.37171631 1863.76022705 413.45406494 1864.29260986 412.50860596 1864.84112549 C398.15662106 1873.13596225 383.56729582 1880.91543015 368.79620361 1888.43634033 C365.34045356 1890.20174648 361.89677374 1891.98916749 358.45343018 1893.77862549 C326.42098559 1910.27322691 293.04419216 1924.1271327 259.22796631 1936.51544189 C257.32421237 1937.2150394 255.42314092 1937.92146858 253.52276611 1938.63018799 C175.29404516 1967.7059853 92.759596 1985.35149324 9.78936768 1993.54034424 C9.03222473 1993.61588531 8.27508179 1993.69142639 7.49499512 1993.76925659 C1.76516929 1994.3307433 -3.96977319 1994.79496196 -9.71063232 1995.22784424 C-10.82305298 1995.3139798 -11.93547363 1995.40011536 -13.081604 1995.48886108 C-36.4167311 1997.2472877 -59.68836253 1997.59180969 -83.08314514 1997.54590225 C-86.00515803 1997.54025823 -88.92716511 1997.53744009 -91.84918213 1997.53482056 C-119.04735189 1997.49937653 -146.13662079 1997.27137226 -173.21765137 1994.48431396 C-175.85413162 1994.2130815 -178.49151802 1993.95210692 -181.12908936 1993.69171143 C-252.25715613 1986.58453642 -322.62326537 1972.99423159 -390.67047119 1950.88812256 C-392.71085897 1950.22777089 -394.75371401 1949.57569171 -396.79754639 1948.92608643 C-430.17314859 1938.30335278 -462.76857533 1925.5816994 -494.71063232 1911.22784424 C-495.76299072 1910.75878662 -496.81534912 1910.289729 -497.89959717 1909.80645752 C-525.586492 1897.43293727 -552.99277322 1884.01641251 -579.17645264 1868.70001221 C-581.74538506 1867.20765551 -584.32998584 1865.74687349 -586.92156982 1864.29425049 C-632.76476125 1838.55268826 -676.23333834 1808.0030167 -716.89031982 1774.71612549 C-718.48325097 1773.41375045 -720.08092752 1772.11718392 -721.67938232 1770.82159424 C-731.85297377 1762.56303177 -741.79284618 1754.0344046 -751.49578857 1745.22784424 C-753.48475734 1743.43180895 -755.49626427 1741.66831121 -757.52313232 1739.91534424 C-765.85529855 1732.64578221 -773.91735833 1725.10236133 -781.67938232 1717.22784424 C-783.56775708 1715.3685214 -785.50705985 1713.63396339 -787.52313232 1711.91534424 C-795.20352012 1705.31021074 -802.31257962 1697.99914827 -808.87078857 1690.28643799 C-811.21559528 1687.66284322 -813.7071387 1685.19815954 -816.21063232 1682.72784424 C-819.91473025 1679.0679242 -823.46351001 1675.33840628 -826.84344482 1671.37628174 C-828.73850148 1669.19577721 -830.69015325 1667.07401892 -832.65545654 1664.95684814 C-837.39444871 1659.84896208 -841.90320312 1654.62779197 -846.27313232 1649.19659424 C-849.13990036 1645.70501779 -852.10856551 1642.31274877 -855.08563232 1638.91534424 C-860.69583917 1632.48699912 -866.02531315 1625.88903213 -871.23455811 1619.13360596 C-872.82934712 1617.07457138 -874.43875523 1615.02755534 -876.05047607 1612.98175049 C-884.2190093 1602.59102122 -892.05289251 1591.99930177 -899.71063232 1581.22784424 C-900.73009788 1579.80201602 -901.74962833 1578.37623419 -902.76922607 1576.95050049 C-909.96748305 1566.85195795 -916.89539589 1556.58793403 -923.71063232 1546.22784424 C-924.36467041 1545.24026123 -924.36467041 1545.24026123 -925.03192139 1544.23272705 C-944.96446249 1514.11345632 -962.6316863 1482.69184264 -979.02850342 1450.52471924 C-980.12850649 1448.36877708 -981.23282551 1446.21503015 -982.34197998 1444.06378174 C-1025.48097057 1360.38121841 -1055.28747449 1268.39441113 -1083.02313232 1094.22784424 C-1083.0986734 1093.49461945 -1083.17421448 1092.76139465 -1083.25204468 1092.00595093 C-1083.81782217 1086.41902712 -1084.28182548 1080.82682799 -1084.71063232 1075.22784424 C-1084.79676788 1074.12783081 -1084.88290344 1073.02781738 -1084.97164917 1071.89447021 C-1086.76822647 1048.2403625 -1087.07406938 1024.64271074 -1087.02869034 1000.92780304 C-1087.02304934 997.93380174 -1087.02022935 994.9398061 -1087.01760864 991.94580078 C-1086.9826173 964.4524482 -1086.79578031 937.06436368 -1083.96386719 909.69036865 C-1083.69686897 907.09400567 -1083.44294337 904.49657009 -1083.19061279 901.89874268 C-1074.66261714 815.05060774 -1055.22687352 729.68529706 -983.54949951 552.92022705 C-981.77416595 549.3627972 -980.02613267 545.79235538 -978.28094482 542.22003174 C-971.26185149 527.91608876 -963.71547027 514.0015678 -955.71063232 500.22784424 C-955.02707212 499.04555857 -954.34381587 497.86309713 -953.66082764 496.68048096 C-945.77942822 483.04178623 -937.87410103 469.43771108 -929.11785889 456.33575439 C-927.54288886 453.97657826 -925.98213344 451.60829168 -924.42156982 449.23956299 C-905.67178324 420.85625632 -885.75342511 393.37555699 -864.20330811 367.05255127 C-862.8887703 365.44560728 -861.57864931 363.83505233 -860.26922607 362.22393799 C-852.07946302 352.15888035 -843.74414567 342.2602373 -834.96844482 332.70050049 C-833.05882081 330.60916485 -831.18731981 328.4952556 -829.33563232 326.35284424 C-822.09429495 318.03555344 -814.56378376 310.00005779 -806.71063232 302.25909424 C-804.85130949 300.37071948 -803.11675148 298.43141671 -801.39813232 296.41534424 C-794.79299882 288.73495644 -787.48193635 281.62589694 -779.76922607 275.06768799 C-777.14563131 272.72288128 -774.68094762 270.23133786 -772.21063232 267.72784424 C-768.55071229 264.02374632 -764.82119437 260.47496655 -760.85906982 257.09503174 C-758.6785653 255.19997508 -756.55680701 253.24832332 -754.43963623 251.28302002 C-749.33175017 246.54402785 -744.11058005 242.03527345 -738.67938232 237.66534424 C-735.18780588 234.79857621 -731.79553686 231.82991106 -728.39813232 228.85284424 C-721.9697872 223.24263739 -715.37182021 217.91316341 -708.61639404 212.70391846 C-706.55735947 211.10912945 -704.51034343 209.49972133 -702.46453857 207.88800049 C-692.77564233 200.27120393 -682.93090241 192.91785267 -672.88690186 185.77618408 C-670.80203835 184.29287644 -668.72275712 182.80203774 -666.64422607 181.30987549 C-641.49675347 163.32959968 -615.44730757 146.73186945 -588.71063232 131.22784424 C-587.80361572 130.70077881 -586.89659912 130.17371338 -585.96209717 129.63067627 C-570.97589034 120.95304555 -555.69896236 112.88998469 -540.26824951 105.04034424 C-536.93407502 103.34168164 -533.60719261 101.62945892 -530.28094482 99.91534424 C-448.312282 57.97179147 -358.52656346 29.37889084 -178.01574707 0.44073486 C-175.73134357 0.22975704 -173.44882597 0.00405391 -171.16619873 -0.22528076 C-115.07394534 -5.77104526 -56.0769595 -5.64535163 0 0 Z " fill="#6747ED" transform="translate(1086.7106323242188,2.77215576171875)"/>
<path d="M0 0 C3.621572 0.01837615 7.24288787 0.0205079 10.86450195 0.02026367 C30.34120319 0.04651215 49.06660657 1.26878269 68.29614258 4.39331055 C69.75579437 4.62865005 69.75579437 4.62865005 71.24493408 4.8687439 C127.48281591 13.99084946 183.098092 35.20675457 229.79614258 68.20581055 C230.90549094 68.97798424 232.01486757 69.75011731 233.12426758 70.5222168 C254.32175944 85.37840264 273.83541036 102.20924132 292.17114258 120.45581055 C292.8251001 121.10509521 293.47905762 121.75437988 294.15283203 122.42333984 C298.56895895 126.85409156 302.72165717 131.46074571 306.79614258 136.20581055 C307.64176758 137.1700293 308.48739258 138.13424805 309.35864258 139.12768555 C327.6927079 160.39990236 343.21326777 183.6580428 356.79614258 208.20581055 C357.2740625 209.0644873 357.75198242 209.92316406 358.24438477 210.80786133 C375.98538084 242.93929621 388.07666992 277.29896011 396.08227539 313.05297852 C396.68341129 315.70792686 397.31768552 318.34977412 397.97583008 320.9909668 C404.30354829 347.12281293 405.18283966 373.95226187 405.23364258 400.70581055 C405.23972534 401.91141632 405.24580811 403.11702209 405.2520752 404.35916138 C405.32604441 426.76783031 403.81916914 449.13309543 399.42114258 471.14331055 C399.2083667 472.24481445 398.99559082 473.34631836 398.77636719 474.48120117 C395.45265417 491.3894757 391.33934776 507.88774967 385.79614258 524.20581055 C385.48725098 525.1278125 385.17835938 526.04981445 384.86010742 526.99975586 C362.62019779 592.89659712 322.56385508 656.29638019 268.79614258 701.20581055 C267.47743164 702.35823242 267.47743164 702.35823242 266.13208008 703.53393555 C228.69800113 736.09670683 185.17469891 760.05961407 138.79614258 777.20581055 C137.96244141 777.51679687 137.12874023 777.8277832 136.26977539 778.14819336 C118.53478949 784.73894894 100.61041823 789.04916331 82.03295898 792.57666016 C79.74538734 793.0213028 77.46146369 793.48491254 75.18041992 793.96191406 C51.14163476 798.96753524 27.01848752 799.49472265 2.54614258 799.51831055 C1.37744629 799.52180511 0.20875 799.52529968 -0.99536133 799.52890015 C-21.63352606 799.56312566 -41.74987042 798.13969385 -62.07885742 794.58081055 C-63.18272797 794.38956604 -63.18272797 794.38956604 -64.30889893 794.19445801 C-99.35752493 788.06527631 -133.0003986 777.35972732 -165.20385742 762.20581055 C-166.08332031 761.79363281 -166.9627832 761.38145508 -167.86889648 760.95678711 C-200.79505831 745.37868309 -232.80436681 724.59118765 -259.50854492 699.69018555 C-261.59955916 697.7628159 -263.71566806 695.90150218 -265.87182617 694.04956055 C-271.00946549 689.56830352 -275.82065988 684.77303246 -280.64135742 679.95581055 C-281.53145508 679.07795898 -282.42155273 678.20010742 -283.33862305 677.2956543 C-288.6535409 671.99238345 -293.56175602 666.52140738 -298.23413086 660.64306641 C-300.08589243 658.35177541 -302.01365687 656.17773461 -304.01635742 654.01831055 C-351.51644859 600.89690682 -380.76022485 528.18123292 -390.88745117 458.36471558 C-391.11309924 456.82507233 -391.34635407 455.28653592 -391.5847168 453.74880981 C-394.18623934 436.75936616 -394.76792129 419.91955893 -394.71079636 402.75579071 C-394.7037504 400.61072935 -394.70103766 398.46568866 -394.69851685 396.32061768 C-394.64997332 373.33340545 -393.53881472 350.82393831 -389.20385742 328.20581055 C-389.07325928 327.51537659 -388.94266113 326.82494263 -388.80810547 326.11358643 C-382.27703407 291.87139878 -371.2060689 258.65902566 -356.20385742 227.20581055 C-355.80553711 226.37065918 -355.4072168 225.53550781 -354.99682617 224.67504883 C-340.68669691 194.91338714 -322.42131539 167.49237004 -301.20385742 142.20581055 C-300.43041992 141.24674805 -299.65698242 140.28768555 -298.86010742 139.29956055 C-291.94911937 130.85279737 -284.33404151 123.12020067 -276.64135742 115.39331055 C-276.11082764 114.85760437 -275.58029785 114.32189819 -275.03369141 113.7699585 C-268.81049815 107.49897949 -262.49741115 101.59478324 -255.56347656 96.10620117 C-253.35122306 94.32449592 -251.27153922 92.4643152 -249.20385742 90.51831055 C-237.32332845 79.851384 -223.6814391 70.73776311 -210.20385742 62.20581055 C-209.49277832 61.75560547 -208.78169922 61.30540039 -208.04907227 60.84155273 C-158.56228025 29.79393736 -103.19700499 9.497532 -45.20385742 2.20581055 C-44.45929291 2.11192047 -43.71472839 2.0180304 -42.94760132 1.92129517 C-28.62919121 0.18554669 -14.41180128 -0.07549552 0 0 Z " fill="#FEFEFE" transform="translate(980.203857421875,462.794189453125)"/>
<path d="M0 0 C0.80904785 0.26619141 1.6180957 0.53238281 2.45166016 0.80664062 C33.79398504 11.24034337 62.61622579 26.87856868 88 48 C88.50966309 48.41942871 89.01932617 48.83885742 89.54443359 49.27099609 C102.92427309 60.3136078 115.39254013 72.23555803 126 86 C127.01485065 87.27535615 128.0305378 88.55004693 129.046875 89.82421875 C146.66155748 112.11784213 160.26664196 137.32753519 170 164 C170.24298828 164.65339355 170.48597656 165.30678711 170.73632812 165.97998047 C174.53677965 176.29046471 177.05609584 186.87685306 179.453125 197.58496094 C179.79783747 199.10723581 180.15546024 200.62669908 180.53125 202.14160156 C187.04497916 229.07910363 187.56644118 261.62611668 183.31640625 288.94873047 C182.97345838 291.17206999 182.67358488 293.39919601 182.375 295.62890625 C173.45701039 359.64126944 137.9214787 422.08515148 87 462 C86.40364746 462.47808105 85.80729492 462.95616211 85.19287109 463.44873047 C49.34739303 492.17042958 7.10720598 510.39519053 -38.0625 518.1875 C-39.00641602 518.35443359 -39.95033203 518.52136719 -40.92285156 518.69335938 C-94.72157377 527.61392539 -154.16022897 518.76667743 -202.18505859 492.96630859 C-204.0026478 491.99859026 -205.83552823 491.06831777 -207.67578125 490.14453125 C-222.81564272 482.45358564 -236.84550173 472.71047083 -250 462 C-250.54011719 461.56284668 -251.08023438 461.12569336 -251.63671875 460.67529297 C-265.70914785 449.19839057 -278.95024701 436.43493743 -290 422 C-291.17369141 420.53433594 -291.17369141 420.53433594 -292.37109375 419.0390625 C-299.21928586 410.43778702 -305.24426754 401.36170749 -311 392 C-311.39574219 391.35724121 -311.79148437 390.71448242 -312.19921875 390.05224609 C-319.35818617 378.26621568 -324.81784948 365.75851843 -330 353 C-330.37044434 352.08943848 -330.74088867 351.17887695 -331.12255859 350.24072266 C-343.1444012 320.20519843 -348.23469349 288.35771523 -348.1875 256.125 C-348.18689575 255.35854156 -348.1862915 254.59208313 -348.18566895 253.80239868 C-348.05554985 192.70592725 -328.44779357 133.17236152 -289 86 C-288.23945312 85.05511719 -287.47890625 84.11023438 -286.6953125 83.13671875 C-275.58544561 69.4808407 -263.00925734 56.67970291 -249 46 C-248.02417969 45.21882812 -247.04835938 44.43765625 -246.04296875 43.6328125 C-178.34536857 -10.28825198 -82.19011868 -27.53670273 0 0 Z " fill="#6747ED" transform="translate(1067,608)"/>
<path d="M0 0 C13.99716186 10.97295754 26.63952695 27.84956642 29 46 C30.383024 62.86422423 27.88780451 80.39445924 16.66451538 93.78686118 C15.78778266 94.72673888 14.91104994 95.66661659 14.00774956 96.63497543 C13.52591573 97.15241364 13.0440819 97.66985186 12.54764705 98.20297001 C7.29011977 103.81734881 1.87583419 109.27590797 -3.56149292 114.71539307 C-4.68386663 115.84179523 -5.80603399 116.96840303 -6.92801583 118.09519553 C-9.9770823 121.15607674 -13.02917056 124.21392834 -16.08184743 127.27120829 C-19.3869848 130.58235888 -22.68932727 133.89629527 -25.99212646 137.20977783 C-33.94559481 145.18762387 -41.9038819 153.16065412 -49.86307591 161.13278735 C-52.1134577 163.38688904 -54.36371306 165.64111686 -56.6139245 167.8953886 C-70.61431654 181.92100348 -84.61630384 195.94502365 -98.62307549 209.96426773 C-101.85762337 213.20174478 -105.09215494 216.43923813 -108.32666016 219.67675781 C-109.53238515 220.88360189 -109.53238515 220.88360189 -110.76246823 222.11482665 C-123.79777701 235.1628028 -136.82275908 248.22103772 -149.84357522 261.28347471 C-163.2354456 274.7177987 -176.63675673 288.14264712 -190.04725945 301.55837226 C-197.56732144 309.08184225 -205.08319145 316.60939757 -212.58843613 324.14765167 C-218.97535473 330.56261757 -225.37076702 336.96896118 -231.77731048 343.36433056 C-235.04200812 346.62385567 -238.30259368 349.88722369 -241.55225754 353.16174316 C-244.53325275 356.16534753 -247.52579561 359.15694351 -250.52753283 362.13981459 C-251.60514325 363.21464154 -252.67863365 364.29362056 -253.74727283 365.37736753 C-262.6243795 374.37214283 -272.2936489 381.91815706 -284.4375 385.9375 C-285.54996094 386.31777344 -286.66242188 386.69804688 -287.80859375 387.08984375 C-303.63583257 391.60360953 -321.80730903 389.56699979 -336.22265625 381.73046875 C-340.82883406 378.86051548 -344.95322503 375.60854553 -349 372 C-349.71027344 371.37222656 -350.42054688 370.74445313 -351.15234375 370.09765625 C-362.97353725 359.00252454 -371.43169498 342.58700831 -372.37109375 326.30859375 C-372.90150742 305.12223316 -366.4391859 290.46468032 -352 275 C-348.23859277 271.10505442 -344.41872908 267.27053117 -340.58963013 263.44245911 C-339.45930353 262.30882489 -338.32918712 261.17498107 -337.19926059 260.04094809 C-334.11903047 256.95079358 -331.03574138 253.86370776 -327.95187974 250.77717793 C-324.61672445 247.43809142 -321.28439503 244.09618654 -317.95162964 240.75471497 C-309.92008288 232.70349317 -301.8837681 224.65703883 -293.84683591 216.61119345 C-290.05644193 212.81640591 -286.26653334 209.02113368 -282.47655869 205.22592735 C-269.87149959 192.60387261 -257.265191 179.98306778 -244.65526009 167.36588001 C-241.39011831 164.09882859 -238.12498191 160.83177181 -234.85986328 157.56469727 C-233.642683 156.34679138 -233.642683 156.34679138 -232.40091322 155.10428133 C-219.24265964 141.93771905 -206.09295364 128.7626545 -192.94677939 115.58403269 C-179.43333668 102.03750912 -165.91236597 88.49853661 -152.38397014 74.96694583 C-144.79484579 67.37565844 -137.20903294 59.78112582 -129.63162613 52.17814064 C-123.18271876 45.70751316 -116.72700774 39.24377176 -110.26237358 32.78885487 C-106.9668198 29.49784052 -103.67455131 26.20371095 -100.39099884 22.90071869 C-97.38072722 19.87277973 -94.36123749 16.85435258 -91.33437954 13.84299668 C-90.24550389 12.7564915 -89.15994747 11.66664655 -88.07822801 10.5730165 C-79.71379747 2.12227599 -71.04733177 -5.08498145 -59.625 -8.875 C-58.48289062 -9.26429687 -57.34078125 -9.65359375 -56.1640625 -10.0546875 C-37.03384855 -15.77013414 -16.09263344 -11.54118156 0 0 Z " fill="#FEFEFE" transform="translate(1358,1275)"/>
<path d="M0 0 C1.56234375 -0.01160156 1.56234375 -0.01160156 3.15625 -0.0234375 C20.36979 0.02003104 36.32923515 7.33329873 48.625 19.25 C60.52555586 31.26302113 68.09716725 47.19517764 68.1875 64.25 C68.0561566 83.81539057 62.19519689 99.80096087 49 114.25 C36.25624166 126.80480641 18.75360601 133.19108451 1.0625 133.5625 C-16.95994282 133.38476388 -33.56172858 126.78888848 -46.37890625 114 C-59.24367024 100.5025427 -65.61932423 84.51556256 -65.4375 65.875 C-65.42920166 64.77446289 -65.42090332 63.67392578 -65.41235352 62.54003906 C-65.24341483 54.41895805 -64.44883468 47.69168197 -61 40.25 C-60.2884375 38.64705078 -60.2884375 38.64705078 -59.5625 37.01171875 C-51.28845694 20.08573162 -37.45780472 8.97896292 -20 2.25 C-13.27408765 0.12564867 -7.02523571 -0.05216759 0 0 Z " fill="#FEFEFE" transform="translate(1453,462.75)"/>
</svg>
